<?xml version="1.0" encoding="UTF-8" standalone="no"?>
<!-- Created with Inkscape (http://www.inkscape.org/) -->

<svg
   xmlns:dc="http://purl.org/dc/elements/1.1/"
   xmlns:cc="http://creativecommons.org/ns#"
   xmlns:rdf="http://www.w3.org/1999/02/22-rdf-syntax-ns#"
   xmlns:svg="http://www.w3.org/2000/svg"
   xmlns="http://www.w3.org/2000/svg"
   xmlns:sodipodi="http://sodipodi.sourceforge.net/DTD/sodipodi-0.dtd"
   xmlns:inkscape="http://www.inkscape.org/namespaces/inkscape"
   width="295.9487mm"
   height="176.17735mm"
   viewBox="0 0 1048.6371 624.25042"
   id="svg2"
   version="1.1"
   inkscape:version="0.92.2 (5c3e80d, 2017-08-06)"
   sodipodi:docname="apparatus.svg"
   inkscape:export-filename="\\khensu\Home03\esch2\Desktop\apparatus.png"
   inkscape:export-xdpi="900.00299"
   inkscape:export-ydpi="900.00299">
  <sodipodi:namedview
     id="base"
     pagecolor="#ffffff"
     bordercolor="#666666"
     borderopacity="1.0"
     inkscape:pageopacity="0.0"
     inkscape:pageshadow="2"
     inkscape:zoom="0.62304229"
     inkscape:cx="153.57477"
     inkscape:cy="279.04176"
     inkscape:document-units="px"
     inkscape:current-layer="layer4"
     showgrid="true"
     showborder="false"
     inkscape:window-width="1920"
     inkscape:window-height="986"
     inkscape:window-x="2869"
     inkscape:window-y="-11"
     inkscape:window-maximized="1"
     inkscape:snap-grids="false"
     inkscape:object-nodes="true"
     inkscape:snap-others="true"
     fit-margin-top="0"
     fit-margin-left="0"
     fit-margin-right="0"
     fit-margin-bottom="0"
     inkscape:snap-to-guides="true"
     inkscape:snap-nodes="true"
     inkscape:snap-global="true"
     inkscape:snap-midpoints="true" />
  <defs
     id="defs4">
    <marker
       inkscape:isstock="true"
       style="overflow:visible"
       id="marker4978"
       refX="0"
       refY="0"
       orient="auto"
       inkscape:stockid="Arrow2Lend">
      <path
         inkscape:connector-curvature="0"
         transform="matrix(-1.1,0,0,-1.1,-1.1,0)"
         d="M 8.7185878,4.0337352 -2.2072895,0.01601326 8.7185884,-4.0017078 c -1.7454984,2.3720609 -1.7354408,5.6174519 -6e-7,8.035443 z"
         style="fill:#2aff80;fill-opacity:1;fill-rule:evenodd;stroke:#2aff80;stroke-width:0.625;stroke-linejoin:round;stroke-opacity:1"
         id="path4980" />
    </marker>
    <marker
       inkscape:stockid="DotL"
       orient="auto"
       refY="0"
       refX="0"
       id="DotL"
       style="overflow:visible"
       inkscape:isstock="true">
      <path
         id="path4528"
         d="m -2.5,-1 c 0,2.76 -2.24,5 -5,5 -2.76,0 -5,-2.24 -5,-5 0,-2.76 2.24,-5 5,-5 2.76,0 5,2.24 5,5 z"
         style="fill-rule:evenodd;stroke:#000000;stroke-width:1pt"
         transform="matrix(0.8,0,0,0.8,5.92,0.8)"
         inkscape:connector-curvature="0" />
    </marker>
    <marker
       inkscape:isstock="true"
       style="overflow:visible"
       id="marker5132"
       refX="0"
       refY="0"
       orient="auto"
       inkscape:stockid="Arrow2Lend">
      <path
         transform="matrix(-1.1,0,0,-1.1,-1.1,0)"
         d="M 8.7185878,4.0337352 -2.2072895,0.01601326 8.7185884,-4.0017078 c -1.7454984,2.3720609 -1.7354408,5.6174519 -6e-7,8.035443 z"
         style="fill:#000000;fill-opacity:1;fill-rule:evenodd;stroke:#000000;stroke-width:0.625;stroke-linejoin:round;stroke-opacity:1"
         id="path5134"
         inkscape:connector-curvature="0" />
    </marker>
    <marker
       inkscape:stockid="Arrow2Lend"
       orient="auto"
       refY="0"
       refX="0"
       id="Arrow2Lend"
       style="overflow:visible"
       inkscape:isstock="true"
       inkscape:collect="always">
      <path
         id="path4641"
         style="fill:#000000;fill-opacity:1;fill-rule:evenodd;stroke:#000000;stroke-width:0.625;stroke-linejoin:round;stroke-opacity:1"
         d="M 8.7185878,4.0337352 -2.2072895,0.01601326 8.7185884,-4.0017078 c -1.7454984,2.3720609 -1.7354408,5.6174519 -6e-7,8.035443 z"
         transform="matrix(-1.1,0,0,-1.1,-1.1,0)"
         inkscape:connector-curvature="0" />
    </marker>
    <clipPath
       clipPathUnits="userSpaceOnUse"
       id="clipPath4798">
      <rect
         style="opacity:0.46000001;fill:#8a916f;fill-opacity:1;stroke:none;stroke-width:2.0999999;stroke-linecap:round;stroke-linejoin:miter;stroke-miterlimit:4;stroke-dasharray:none;stroke-opacity:1"
         id="rect4800"
         width="353.62881"
         height="343.94034"
         x="-1082.8315"
         y="140.27184" />
    </clipPath>
    <clipPath
       clipPathUnits="userSpaceOnUse"
       id="clipPath4821">
      <rect
         style="opacity:0.46000001;fill:#8a916f;fill-opacity:1;stroke:none;stroke-width:2.0999999;stroke-linecap:round;stroke-linejoin:miter;stroke-miterlimit:4;stroke-dasharray:none;stroke-opacity:1"
         id="rect4823"
         width="754.73102"
         height="560.96185"
         x="-524.77618"
         y="-1452.511" />
    </clipPath>
    <clipPath
       clipPathUnits="userSpaceOnUse"
       id="clipPath5144">
      <rect
         style="opacity:0.46000001;fill:#cccccc;fill-opacity:1;stroke:#9955ff;stroke-width:6.08138132;stroke-linecap:round;stroke-linejoin:miter;stroke-miterlimit:4;stroke-dasharray:none;stroke-opacity:1"
         id="rect5146"
         width="1896.2947"
         height="1211.2172"
         x="-4936.3921"
         y="-1548.9507" />
    </clipPath>
    <clipPath
       clipPathUnits="userSpaceOnUse"
       id="clipPath5148">
      <rect
         style="opacity:0.46000001;fill:#cccccc;fill-opacity:1;stroke:#9955ff;stroke-width:6.08138132;stroke-linecap:round;stroke-linejoin:miter;stroke-miterlimit:4;stroke-dasharray:none;stroke-opacity:1"
         id="rect5150"
         width="1896.2947"
         height="1211.2172"
         x="-4732.9346"
         y="-1552.826" />
    </clipPath>
    <clipPath
       clipPathUnits="userSpaceOnUse"
       id="clipPath5152">
      <rect
         style="opacity:0.46000001;fill:#cccccc;fill-opacity:1;stroke:#9955ff;stroke-width:6.08138132;stroke-linecap:round;stroke-linejoin:miter;stroke-miterlimit:4;stroke-dasharray:none;stroke-opacity:1"
         id="rect5154"
         width="1896.2947"
         height="1211.2172"
         x="-4732.9346"
         y="-1552.826" />
    </clipPath>
    <clipPath
       clipPathUnits="userSpaceOnUse"
       id="clipPath4350">
      <rect
         style="opacity:0.65799997;fill:#ffffff"
         id="rect4352"
         width="1266.905"
         height="1153.3049"
         x="-3310.7886"
         y="-1477.2936" />
    </clipPath>
  </defs>
  <metadata
     id="metadata7">
    <rdf:RDF>
      <cc:Work
         rdf:about="">
        <dc:format>image/svg+xml</dc:format>
        <dc:type
           rdf:resource="http://purl.org/dc/dcmitype/StillImage" />
        <dc:title />
      </cc:Work>
    </rdf:RDF>
  </metadata>
  <g
     inkscape:label="Layer 1"
     inkscape:groupmode="layer"
     id="layer1"
     transform="translate(222.47537,406.11612)">
    <g
       transform="matrix(0.32887265,0,0,0.32887265,-468.98763,82.047711)"
       style="fill:#ffffff;stroke:#000000;stroke-width:1.52034533;stroke-miterlimit:4;stroke-dasharray:none;stroke-opacity:1"
       id="g4764" />
    <text
       xml:space="preserve"
       style="font-style:normal;font-weight:normal;line-height:0%;font-family:sans-serif;letter-spacing:0px;word-spacing:0px;fill:#000000;fill-opacity:1;stroke:none;stroke-width:0.32887265px;stroke-linecap:butt;stroke-linejoin:miter;stroke-opacity:1"
       x="-1060.5798"
       y="-124.07993"
       id="text4912"><tspan
         style="font-size:40px;line-height:1.25;stroke-width:0.32887265px"
         sodipodi:role="line"
         id="tspan4914"
         x="-1060.5798"
         y="-124.07993"> </tspan></text>
    <flowRoot
       xml:space="preserve"
       id="flowRoot4942"
       style="font-style:normal;font-weight:normal;line-height:0.01%;font-family:sans-serif;letter-spacing:0px;word-spacing:0px;fill:#000000;fill-opacity:1;stroke:none;stroke-width:1px;stroke-linecap:butt;stroke-linejoin:miter;stroke-opacity:1"
       transform="translate(-926.75656,-141.53021)"><flowRegion
         id="flowRegion4944"><rect
           id="rect4946"
           width="814.69666"
           height="1095.8751"
           x="-832.72095"
           y="-352.26199" /></flowRegion><flowPara
         style="font-size:40px;line-height:1.25"
         id="flowPara4948"> </flowPara></flowRoot>    <g
       transform="matrix(0.4861901,0,0,0.4861901,129.88906,-222.13365)"
       id="g4415"
       style="stroke:#000000;stroke-opacity:1">
      <path
         style="fill:none;stroke:#000000;stroke-width:1px;stroke-linecap:butt;stroke-linejoin:miter;stroke-opacity:1"
         d="M -460.2891,-99.212611 -920.5782,166.53542 -460.2891,432.28346 0,166.53542 -460.2891,-99.212611"
         id="path3349"
         inkscape:connector-curvature="0" />
      <path
         style="fill:#ffffff;fill-rule:evenodd;stroke:#000000;stroke-width:1px;stroke-linecap:butt;stroke-linejoin:miter;stroke-opacity:1"
         d="M -460.2891,-99.212611 V -170.07875 L -920.5782,95.669281 v 70.866139 z"
         id="path3351"
         inkscape:connector-curvature="0" />
      <path
         style="fill:#e6e6e6;fill-opacity:1;fill-rule:evenodd;stroke:#000000;stroke-width:1px;stroke-linecap:butt;stroke-linejoin:miter;stroke-opacity:1"
         d="m -460.2891,-170.07875 v 70.866139 L 0,166.53542 V 95.669281 Z"
         id="path3353"
         inkscape:connector-curvature="0" />
      <path
         style="opacity:0.5;fill:#e6e6e6;fill-opacity:1;fill-rule:evenodd;stroke:#000000;stroke-width:1px;stroke-linecap:butt;stroke-linejoin:miter;stroke-opacity:1"
         d="M -920.5782,25.669281 -460.2891,-240.07875 0,25.669281 -460.2891,291.41732 Z"
         id="path4199"
         inkscape:connector-curvature="0" />
      <path
         style="opacity:0.5;fill:#f9f9f9;fill-opacity:1;fill-rule:evenodd;stroke:#000000;stroke-width:1px;stroke-linecap:butt;stroke-linejoin:miter;stroke-opacity:1"
         d="m -920.5782,95.669281 v 70.866139 l 460.2891,265.74804 v -70.86614 z"
         id="path3387"
         inkscape:connector-curvature="0" />
      <path
         style="opacity:0.5;fill:#cbcbcb;fill-opacity:0.25098039;fill-rule:evenodd;stroke:#000000;stroke-width:1px;stroke-linecap:butt;stroke-linejoin:miter;stroke-opacity:1"
         d="M -460.2891,432.28346 V 361.41732 L 0,95.669281 v 70.866139 z"
         id="path4197"
         inkscape:connector-curvature="0" />
      <path
         style="fill:none;stroke:#000000;stroke-width:1px;stroke-linecap:butt;stroke-linejoin:miter;stroke-opacity:1"
         d="M -920.5782,95.669281 V 24.803138 L -460.2891,-240.9449 v 70.86615 z"
         id="path4201"
         inkscape:connector-curvature="0" />
      <path
         style="fill:#e6e6e6;fill-opacity:1;fill-rule:evenodd;stroke:#000000;stroke-width:1px;stroke-linecap:butt;stroke-linejoin:miter;stroke-opacity:1"
         d="M -460.2891,-240.9449 0,24.803138 V 95.669281 L -460.2891,-170.07875 v -70.86615"
         id="path4203"
         inkscape:connector-curvature="0" />
      <path
         style="opacity:0.5;fill:#f9f9f9;fill-opacity:0.50196078;fill-rule:evenodd;stroke:#000000;stroke-width:1px;stroke-linecap:butt;stroke-linejoin:miter;stroke-opacity:1"
         d="M -920.5782,24.803138 V 95.669281 L -460.2891,361.41732 V 290.55117 L -920.5782,24.803138"
         id="path4207"
         inkscape:connector-curvature="0" />
      <path
         style="opacity:0.5;fill:#cbcbcb;fill-opacity:0.50196078;fill-rule:evenodd;stroke:#000000;stroke-width:1px;stroke-linecap:butt;stroke-linejoin:miter;stroke-opacity:1"
         d="M 0,24.803138 V 95.669281 L -460.2891,361.41732 v -70.86615 z"
         id="path4205"
         inkscape:connector-curvature="0" />
    </g>
    <g
       id="g5743"
       transform="matrix(0.46680401,0,0,0.46680401,298.13205,-99.308166)">
      <path
         style="color:#000000;font-style:normal;font-variant:normal;font-weight:normal;font-stretch:normal;font-size:medium;line-height:normal;font-family:sans-serif;text-indent:0;text-align:start;text-decoration:none;text-decoration-line:none;letter-spacing:normal;word-spacing:normal;text-transform:none;writing-mode:lr-tb;direction:ltr;baseline-shift:baseline;text-anchor:start;display:inline;overflow:visible;visibility:visible;fill:#000000;fill-opacity:1;fill-rule:nonzero;stroke:none;enable-background:accumulate"
         d="m -640.8418,-300.64453 c -2.21287,0.14791 -4.35298,0.51281 -6.37304,1.08203 -4.04013,1.13844 -7.64176,3.11623 -10.27735,6.00781 -2.63558,2.89159 -4.20997,6.77536 -4.04297,11.03907 v 0.002 c 0.45438,11.59928 6.81551,20.87257 21.05469,31.98242 11.32755,8.83811 20.34484,14.29081 32.76172,19.80078 8.42918,3.74045 14.44373,5.65854 19.65234,4.42774 2.60431,-0.61541 4.90965,-2.38523 6.13868,-4.72657 1.22847,-2.34029 1.59842,-5.04586 1.5664,-8.14843 v -0.002 c -0.0833,-8.45241 -4.25412,-17.20735 -13.59765,-30.45898 -7.54731,-10.7041 -18.12426,-21.41453 -26.31446,-26.12305 -6.63994,-3.81606 -13.92974,-5.32656 -20.56836,-4.88281 z"
         id="path5908"
         inkscape:connector-curvature="0" />
      <path
         style="color:#000000;font-style:normal;font-variant:normal;font-weight:normal;font-stretch:normal;font-size:medium;line-height:normal;font-family:sans-serif;text-indent:0;text-align:start;text-decoration:none;text-decoration-line:none;letter-spacing:normal;word-spacing:normal;text-transform:none;writing-mode:lr-tb;direction:ltr;baseline-shift:baseline;text-anchor:start;display:inline;overflow:visible;visibility:visible;fill:#000000;fill-opacity:1;fill-rule:nonzero;stroke:none;enable-background:accumulate"
         d="m -553.97656,-299.14062 c -2.1663,0.0467 -4.31591,0.31986 -6.43555,0.82812 -6.91507,1.65819 -12.10532,5.56967 -14.2832,11.02539 -2.17788,5.45572 -1.21577,11.94546 2.43359,18.27734 4.3839,7.60629 10.6066,13.91358 20.16797,20.6836 8.60495,6.09284 17.58029,11.47938 25.57227,15.48047 7.99197,4.00108 14.80246,6.674 20.06445,7.15429 4.3288,0.3951 8.23378,-0.57372 10.72851,-3.30468 2.49474,-2.73097 3.1006,-6.57339 2.58594,-10.61329 -1.02931,-8.07978 -6.27699,-18.2305 -15.25781,-29.90039 -8.53429,-11.08963 -17.16287,-19.20998 -25.87891,-24.16015 -6.53703,-3.71263 -13.19838,-5.61075 -19.69726,-5.4707 z"
         id="path5906"
         inkscape:connector-curvature="0" />
      <path
         style="color:#000000;font-style:normal;font-variant:normal;font-weight:normal;font-stretch:normal;font-size:medium;line-height:normal;font-family:sans-serif;text-indent:0;text-align:start;text-decoration:none;text-decoration-line:none;letter-spacing:normal;word-spacing:normal;text-transform:none;writing-mode:lr-tb;direction:ltr;baseline-shift:baseline;text-anchor:start;display:inline;overflow:visible;visibility:visible;fill:#000000;fill-opacity:1;fill-rule:nonzero;stroke:none;enable-background:accumulate"
         d="m -471.7168,-295.10352 c -2.75697,0.18794 -5.26729,0.76926 -7.50195,1.72852 -4.46931,1.91852 -7.74038,5.46325 -9.16992,9.79297 -2.85898,8.65912 1.07539,19.59629 11.24414,29.48242 3.8e-4,3.7e-4 -3.8e-4,0.002 0,0.002 l 5.67578,5.51758 v -1.05664 c 1.4949,1.05511 3.02855,2.12241 4.85742,3.31641 4.65498,3.03904 10.21714,6.41511 15.8086,9.6289 5.59145,3.2138 11.20456,6.26131 15.97461,8.63868 4.77004,2.37737 8.41982,4.07426 11.27539,4.69726 4.8699,1.06244 8.92741,1.21847 12.27148,-0.72265 3.34407,-1.94113 4.78808,-5.89583 4.75,-10.10157 -0.0356,-3.93469 -0.75401,-7.63653 -2.58008,-11.70117 -1.82607,-4.06464 -4.67499,-8.53723 -9.04687,-14.71875 -8.38667,-11.85806 -15.98924,-19.26853 -27.13868,-26.41211 -7.51967,-4.81791 -10.72958,-6.18396 -17.4375,-7.46094 -3.22134,-0.61323 -6.22544,-0.81879 -8.98242,-0.63086 z"
         id="path5904"
         inkscape:connector-curvature="0" />
      <path
         style="color:#000000;font-style:normal;font-variant:normal;font-weight:normal;font-stretch:normal;font-size:medium;line-height:normal;font-family:sans-serif;text-indent:0;text-align:start;text-decoration:none;text-decoration-line:none;letter-spacing:normal;word-spacing:normal;text-transform:none;writing-mode:lr-tb;direction:ltr;baseline-shift:baseline;text-anchor:start;display:inline;overflow:visible;visibility:visible;fill:#000000;fill-opacity:1;fill-rule:nonzero;stroke:none;enable-background:accumulate"
         d="m -633.21484,-289.09961 c 4.49035,0.42071 9.02399,2.08035 13.00976,4.9707 3.99229,2.89508 15.80571,15.89349 19.09961,21.22852 5.16352,8.36322 8.23674,14.23091 9.51953,18.13281 1.2828,3.90191 0.97286,5.22186 -0.01,6.54102 -0.60468,0.8117 -0.86143,1.05092 -3.01172,0.89258 -2.15029,-0.15835 -5.7941,-1.19634 -10.91211,-3.30469 -10.10076,-4.16102 -18.0271,-8.78926 -27.48828,-16.07031 -9.78243,-7.5283 -13.15657,-11.44754 -16.1875,-18.51368 -1.56135,-3.63996 -1.77214,-5.80856 -1.37891,-7.11718 0.39324,-1.30862 1.52415,-2.61755 4.60742,-4.29102 3.81376,-2.06992 8.2616,-2.88945 12.75196,-2.46875 z"
         id="path5902"
         inkscape:connector-curvature="0" />
      <path
         style="color:#000000;font-style:normal;font-variant:normal;font-weight:normal;font-stretch:normal;font-size:medium;line-height:normal;font-family:sans-serif;text-indent:0;text-align:start;text-decoration:none;text-decoration-line:none;letter-spacing:normal;word-spacing:normal;text-transform:none;writing-mode:lr-tb;direction:ltr;baseline-shift:baseline;text-anchor:start;display:inline;overflow:visible;visibility:visible;fill:#000000;fill-opacity:1;fill-rule:nonzero;stroke:none;enable-background:accumulate"
         d="m -549.30859,-287.58008 c 1.19715,-0.005 2.38637,0.0855 3.53515,0.28516 6.26361,1.08933 11.40494,3.98404 18.55664,10.83398 3.19946,3.06446 8.05824,8.99437 12.32032,14.88477 4.26207,5.8904 8.05197,12.01224 9.18945,14.77929 2.15898,5.25175 1.77153,8.1889 1.22265,8.92383 -0.27443,0.36747 -0.65762,0.67783 -1.86523,0.84375 -1.20298,0.16529 -3.12448,0.0335 -5.59766,-0.60937 l -0.0254,-0.006 c -4.83352,-1.26198 -13.84303,-5.59959 -22.48046,-10.74805 -8.63744,-5.14846 -17.15439,-11.2052 -21.57813,-15.55664 -2.41979,-2.38023 -4.77783,-5.53383 -6.45508,-8.48633 -1.67725,-2.95249 -2.56768,-5.884 -2.57617,-6.82226 v -0.002 -0.004 c -0.0173,-1.61457 1.83403,-4.1585 5.64258,-6.02344 2.85641,-1.3987 6.51987,-2.27774 10.11133,-2.29297 z"
         id="path5900"
         inkscape:connector-curvature="0" />
      <path
         style="color:#000000;font-style:normal;font-variant:normal;font-weight:normal;font-stretch:normal;font-size:medium;line-height:normal;font-family:sans-serif;text-indent:0;text-align:start;text-decoration:none;text-decoration-line:none;letter-spacing:normal;word-spacing:normal;text-transform:none;writing-mode:lr-tb;direction:ltr;baseline-shift:baseline;text-anchor:start;display:inline;overflow:visible;visibility:visible;fill:#000000;fill-opacity:1;fill-rule:nonzero;stroke:none;enable-background:accumulate"
         d="m -728.93555,-287.23828 c -1.59575,0.11304 -3.12375,0.41849 -4.56836,0.94531 -12.06705,4.40074 -17.16114,18.60478 -11.38476,30.62695 3.14043,6.53593 10.05329,14.13318 18.26367,20.70118 4.34991,3.47974 12.36592,8.46716 22.03125,13.82812 12.34753,6.84864 16.88626,8.92188 22.04883,9.79297 3.07216,0.51837 5.80308,0.58237 8.28125,-0.0371 2.47816,-0.61947 4.72396,-2.08009 6.08594,-4.20312 2.72395,-4.24607 2.16374,-9.78736 0.0352,-16.6504 -4.86554,-15.68702 -11.50656,-26.43754 -23.17187,-37.48242 -6.52821,-6.18099 -14.34916,-11.11622 -21.82617,-14.17773 -5.60776,-2.29614 -11.00767,-3.68287 -15.79493,-3.34375 z"
         id="path5898"
         inkscape:connector-curvature="0" />
      <path
         style="color:#000000;font-style:normal;font-variant:normal;font-weight:normal;font-stretch:normal;font-size:medium;line-height:normal;font-family:sans-serif;text-indent:0;text-align:start;text-decoration:none;text-decoration-line:none;letter-spacing:normal;word-spacing:normal;text-transform:none;writing-mode:lr-tb;direction:ltr;baseline-shift:baseline;text-anchor:start;display:inline;overflow:visible;visibility:visible;fill:#000000;fill-opacity:1;fill-rule:nonzero;stroke:none;enable-background:accumulate"
         d="m -463.50391,-283.45703 c 4.01263,0.33833 8.4952,1.62697 12.93946,4.19336 6.57464,3.79659 15.20356,12.30905 21.88672,21.05469 3.34158,4.37281 6.23241,8.81411 8.24218,12.70312 2.00977,3.88902 3.04539,7.32241 3.06055,8.99805 0.009,0.98776 -0.25051,1.39066 -1.51172,1.96484 -1.26121,0.57419 -3.54235,0.84033 -6.24023,0.17383 -0.86566,-0.21387 -3.53928,-1.30594 -7.34766,-3.26563 -3.80801,-1.95949 -8.90757,-4.78689 -15.38086,-8.52539 h -0.002 c -10.255,-5.92408 -16.38953,-9.72802 -20.41016,-12.94531 -4.02086,-3.21747 -5.99765,-5.76661 -8.45508,-9.92383 -2.01716,-3.41234 -2.21193,-5.98303 -1.60546,-7.97656 0.60646,-1.99353 2.13775,-3.69841 4.70312,-4.9375 2.56537,-1.23909 6.10846,-1.85201 10.12109,-1.51367 z"
         id="path5896"
         inkscape:connector-curvature="0" />
      <path
         style="color:#000000;font-style:normal;font-variant:normal;font-weight:normal;font-stretch:normal;font-size:medium;line-height:normal;font-family:sans-serif;text-indent:0;text-align:start;text-decoration:none;text-decoration-line:none;letter-spacing:normal;word-spacing:normal;text-transform:none;writing-mode:lr-tb;direction:ltr;baseline-shift:baseline;text-anchor:start;display:inline;overflow:visible;visibility:visible;fill:#000000;fill-opacity:1;fill-rule:nonzero;stroke:none;enable-background:accumulate"
         d="m -386.09375,-277.34375 c -3.86464,0.16021 -7.45028,1.13115 -10.60547,3.0332 -6.04933,3.64674 -7.97241,10.89619 -6.42187,17.99805 1.55053,7.10186 6.15096,14.61026 13.27343,21.21289 1.68462,1.56166 4.36408,3.30174 8.06836,5.59766 3.70428,2.29591 8.28898,4.97323 13.13086,7.6875 9.68376,5.42853 20.32053,10.97266 27.0586,13.85156 3.9169,1.67353 7.47502,2.49814 10.71484,2.38281 3.23982,-0.11533 6.26007,-1.29877 8.2793,-3.57422 4.03845,-4.5509 3.53788,-11.65932 -0.0566,-19.67187 -4.24853,-9.4704 -14.98856,-23.07827 -23.91211,-30.5625 -9.47539,-7.94707 -18.72418,-13.41901 -27.25586,-16.11524 -4.26584,-1.34811 -8.4088,-2.00005 -12.27344,-1.83984 z"
         id="path5894"
         inkscape:connector-curvature="0" />
      <path
         style="color:#000000;font-style:normal;font-variant:normal;font-weight:normal;font-stretch:normal;font-size:medium;line-height:normal;font-family:sans-serif;text-indent:0;text-align:start;text-decoration:none;text-decoration-line:none;letter-spacing:normal;word-spacing:normal;text-transform:none;writing-mode:lr-tb;direction:ltr;baseline-shift:baseline;text-anchor:start;display:inline;overflow:visible;visibility:visible;fill:#000000;fill-opacity:1;fill-rule:nonzero;stroke:none;enable-background:accumulate"
         d="m -724.08984,-275.60547 c 1.29226,0.0715 2.85589,0.29543 4.80273,0.69336 7.7113,1.57617 13.34495,4.66341 20.53711,11.41992 7.96293,7.48058 12.21287,13.52527 16.98047,24.18946 3.67202,8.21372 4.4967,13.77035 3.99023,15.45507 -0.25323,0.84237 -0.32864,0.92815 -1.23632,1.22266 -0.90769,0.29451 -2.79578,0.40303 -5.49024,-0.0859 -2.22966,-0.40463 -10.25986,-3.86437 -17.85742,-8 -7.59757,-4.13562 -15.41608,-9.09108 -18.8711,-12.0957 -8.10595,-7.04928 -12.80683,-13.14624 -14.40624,-17.77344 -1.59942,-4.6272 -0.84592,-7.63301 2.82421,-11.1914 2.31771,-2.24723 3.8209,-3.19523 5.54883,-3.61524 0.86397,-0.21 1.88547,-0.29027 3.17774,-0.21875 z"
         id="path5892"
         inkscape:connector-curvature="0" />
      <path
         style="color:#000000;font-style:normal;font-variant:normal;font-weight:normal;font-stretch:normal;font-size:medium;line-height:normal;font-family:sans-serif;text-indent:0;text-align:start;text-decoration:none;text-decoration-line:none;letter-spacing:normal;word-spacing:normal;text-transform:none;writing-mode:lr-tb;direction:ltr;baseline-shift:baseline;text-anchor:start;display:inline;overflow:visible;visibility:visible;fill:#000000;fill-opacity:1;fill-rule:nonzero;stroke:none;enable-background:accumulate"
         d="m -380.91016,-265.81836 c 6.09566,0.24363 13.84812,2.91029 20.90235,8.03711 9.02769,6.56115 13.59771,11.17924 20.74023,20.97461 5.7265,7.85341 8.20962,14.42881 8.16602,17.48828 -0.0218,1.52974 -0.31951,1.90584 -0.85547,2.26367 -0.53596,0.35784 -1.9282,0.7589 -4.46094,0.36914 0.50112,0.0771 -0.69396,-0.22479 -1.9668,-0.75976 -1.27283,-0.53498 -2.97539,-1.30415 -4.94726,-2.23828 -3.94374,-1.86826 -8.98257,-4.39831 -14.11524,-7.11524 -13.03676,-6.90089 -19.23721,-10.16119 -22.60937,-12.44922 -3.37216,-2.28803 -4.11233,-3.53345 -7.23828,-7.61914 -4.88267,-6.38174 -5.96407,-11.71647 -5.07617,-13.80664 1.4984,-3.52741 5.36528,-5.38816 11.46093,-5.14453 z"
         id="path5890"
         inkscape:connector-curvature="0" />
      <path
         style="color:#000000;font-style:normal;font-variant:normal;font-weight:normal;font-stretch:normal;font-size:medium;line-height:normal;font-family:sans-serif;text-indent:0;text-align:start;text-decoration:none;text-decoration-line:none;letter-spacing:normal;word-spacing:normal;text-transform:none;writing-mode:lr-tb;direction:ltr;baseline-shift:baseline;text-anchor:start;display:inline;overflow:visible;visibility:visible;fill:#0000ff;fill-opacity:1;fill-rule:nonzero;stroke:none;enable-background:accumulate"
         d="m -299.12695,-254.23633 c -5.18308,-0.38966 -9.6651,0.80067 -12.91211,3.42383 -3.24702,2.62316 -5.05533,6.54541 -5.44336,10.78516 -0.77606,8.47948 3.53555,18.4881 12.49219,27.25976 4.15076,4.06508 7.86974,6.4161 21.99804,13.98242 10.74753,5.75575 18.54003,9.71773 24.28125,12.27735 5.74123,2.55962 9.26865,3.85148 12.53321,3.80469 3.69518,-0.053 7.0022,-1.18075 9.21875,-3.5625 2.21654,-2.38176 3.04721,-5.68204 2.87695,-9.11524 -0.34053,-6.86639 -4.18237,-15.05056 -11.02149,-24.35352 -7.06328,-9.60792 -14.91604,-16.79985 -25.86718,-23.73437 -11.06697,-7.00782 -18.9275,-10.07375 -28.15625,-10.76758 z"
         id="path5888"
         inkscape:connector-curvature="0" />
      <path
         style="color:#000000;font-style:normal;font-variant:normal;font-weight:normal;font-stretch:normal;font-size:medium;line-height:normal;font-family:sans-serif;text-indent:0;text-align:start;text-decoration:none;text-decoration-line:none;letter-spacing:normal;word-spacing:normal;text-transform:none;writing-mode:lr-tb;direction:ltr;baseline-shift:baseline;text-anchor:start;display:inline;overflow:visible;visibility:visible;fill:#000000;fill-opacity:1;fill-rule:nonzero;stroke:none;enable-background:accumulate"
         d="m -823.76953,-249.8418 c -1.61513,0.0593 -3.14681,0.24882 -4.57813,0.62891 -1.43131,0.38009 -2.82081,0.95508 -4.01172,2.06641 -1.1909,1.11132 -2.01186,2.90909 -1.99609,4.65234 0.0176,1.94755 0.67467,3.46591 1.51953,5.19922 0.84487,1.73331 1.96617,3.57017 3.26172,5.41797 2.59111,3.69558 5.81789,7.3975 9.08203,9.91797 1.94646,1.50288 6.52405,4.27421 13.33985,8.34375 6.81579,4.06953 15.52895,9.1558 24.51562,14.28711 17.90202,10.22196 27.26038,15.52812 33.22656,17.96093 2.98309,1.21641 5.26366,1.8215 7.56641,1.50586 2.30275,-0.31563 4.00059,-1.68841 5.19336,-2.84375 1.70487,-1.65134 5.37111,-3.77896 6.62305,-8.30078 0.62597,-2.26091 0.36987,-4.92938 -0.83008,-7.61719 -1.19995,-2.6878 -3.2648,-5.52196 -6.4707,-8.85351 -3.00722,-3.12512 -5.06188,-5.13839 -9.16016,-7.89453 -4.09829,-2.75615 -10.23787,-6.33013 -22.07227,-13.19336 -6.71819,-3.89611 -13.40961,-7.67582 -18.79687,-10.63867 -5.38726,-2.96286 -9.1744,-5.00103 -11.18164,-5.82422 -5.19617,-2.13099 -13.10048,-4.06452 -20.1543,-4.6543 -1.76345,-0.14745 -3.46104,-0.21943 -5.07617,-0.16016 z"
         id="path5886"
         inkscape:connector-curvature="0" />
      <path
         style="color:#000000;font-style:normal;font-variant:normal;font-weight:normal;font-stretch:normal;font-size:medium;line-height:normal;font-family:sans-serif;text-indent:0;text-align:start;text-decoration:none;text-decoration-line:none;letter-spacing:normal;word-spacing:normal;text-transform:none;writing-mode:lr-tb;direction:ltr;baseline-shift:baseline;text-anchor:start;display:inline;overflow:visible;visibility:visible;fill:#0000ff;fill-opacity:1;fill-rule:nonzero;stroke:none;enable-background:accumulate"
         d="m -295.20508,-242.75586 c 2.05141,0.16793 4.38705,0.61352 6.97852,1.41211 8.94262,2.75579 19.38783,9.94717 27.58203,18.34766 8.19419,8.40048 14.05268,18.14494 14.84961,24.75 0.25806,2.13877 0.1313,3.2546 0.10351,3.33789 -0.0278,0.0833 0.37868,-0.20672 -0.42382,0.13867 -1.73868,0.74842 -2.8671,0.91219 -6.41602,-0.18359 -3.54892,-1.09579 -9.07646,-3.6378 -17.83594,-8.08985 -11.13047,-5.65713 -17.14247,-8.76854 -20.82422,-11.01758 -3.68174,-2.24904 -5.00091,-3.51641 -7.50976,-6.16601 -7.82442,-8.2633 -8.9415,-15.25032 -7.16211,-18.66016 0.88969,-1.70492 2.48633,-2.98129 5.38867,-3.61133 1.45117,-0.31502 3.21812,-0.42574 5.26953,-0.25781 z"
         id="path5884"
         inkscape:connector-curvature="0" />
      <path
         style="color:#000000;font-style:normal;font-variant:normal;font-weight:normal;font-stretch:normal;font-size:medium;line-height:normal;font-family:sans-serif;text-indent:0;text-align:start;text-decoration:none;text-decoration-line:none;letter-spacing:normal;word-spacing:normal;text-transform:none;writing-mode:lr-tb;direction:ltr;baseline-shift:baseline;text-anchor:start;display:inline;overflow:visible;visibility:visible;fill:#000000;fill-opacity:1;fill-rule:nonzero;stroke:none;enable-background:accumulate"
         d="m -821.74219,-237.95312 c 1.30878,0.1397 2.48928,0.23458 4.10938,0.48828 5.07747,0.79509 10.47098,1.94345 13.65234,2.08203 0.50538,0.022 2.66153,0.53023 5.36524,1.59375 2.7037,1.06352 6.11329,2.62511 9.96679,4.57226 7.70701,3.89431 17.2089,9.32605 26.84375,15.45899 10.96519,6.97978 13.54917,8.98316 18.6875,14.50781 2.62754,2.82511 3.80607,4.89837 4.08594,5.83008 0.27987,0.9317 0.27265,0.33732 0.10937,0.48242 -0.16327,0.1451 -1.20277,0.64953 -2.70703,0.89648 -1.50425,0.24696 -3.39242,0.3323 -5.20312,0.35352 -1.32609,0.0155 -1.8598,-0.009 -6.34961,-2.28125 -4.48982,-2.27231 -12.28221,-6.66351 -26.5625,-14.79492 -8.4694,-4.82263 -16.59358,-9.51024 -22.84961,-13.17188 -6.25603,-3.66163 -11.01258,-6.57379 -11.46094,-6.89453 -1.2268,-0.87763 -4.01718,-3.87873 -6.11914,-6.73633 -0.63323,-0.86087 -1.06358,-1.59757 -1.56836,-2.38671 z"
         id="path5882"
         inkscape:connector-curvature="0" />
      <path
         style="color:#000000;font-style:normal;font-variant:normal;font-weight:normal;font-stretch:normal;font-size:medium;line-height:normal;font-family:sans-serif;text-indent:0;text-align:start;text-decoration:none;text-decoration-line:none;letter-spacing:normal;word-spacing:normal;text-transform:none;writing-mode:lr-tb;direction:ltr;baseline-shift:baseline;text-anchor:start;display:inline;overflow:visible;visibility:visible;fill:#000000;fill-opacity:1;fill-rule:nonzero;stroke:none;enable-background:accumulate"
         d="m -214.2793,-189.95508 c -2.15977,0.0288 -4.24323,0.27757 -6.18554,0.73633 -3.88464,0.91753 -7.35508,2.61807 -9.39649,5.75391 -1.89138,2.90534 -1.9963,6.25912 -1.85937,9.9375 0.13693,3.67837 0.78672,7.47771 2.29297,10.58984 3.04329,6.28792 9.35227,14.30558 14.9082,19.03711 5.60935,4.77701 15.38259,10.42434 25.28711,15.27539 9.90452,4.85105 19.48642,8.80662 25.75,9.64648 4.12156,0.55263 7.93238,-0.0283 10.69531,-2.38867 2.76293,-2.36039 3.89445,-6.0616 3.85742,-10.15234 -0.1029,-11.36972 -8.72206,-24.05221 -20.04101,-35.08789 -11.31896,-11.03568 -25.53824,-20.25798 -38.66992,-22.75781 -2.24436,-0.42726 -4.4789,-0.61862 -6.63868,-0.58985 z"
         id="path5880"
         inkscape:connector-curvature="0" />
      <path
         style="color:#000000;font-style:normal;font-variant:normal;font-weight:normal;font-stretch:normal;font-size:medium;line-height:normal;font-family:sans-serif;text-indent:0;text-align:start;text-decoration:none;text-decoration-line:none;letter-spacing:normal;word-spacing:normal;text-transform:none;writing-mode:lr-tb;direction:ltr;baseline-shift:baseline;text-anchor:start;display:inline;overflow:visible;visibility:visible;fill:#000000;fill-opacity:1;fill-rule:nonzero;stroke:none;enable-background:accumulate"
         d="m -208.51172,-178.57812 c 3.82134,0.3441 8.17285,1.65084 12.82422,3.96289 9.30273,4.62408 19.4441,13.08859 27.93359,24.24609 4.29393,5.64337 6.84587,10.54396 7.69727,13.95703 0.4257,1.70653 0.42358,2.9977 0.22266,3.83203 -0.20092,0.83434 -0.49212,1.26435 -1.14258,1.72656 -1.07931,0.7669 -2.21331,1.09825 -5.22266,0.55274 -3.00935,-0.54551 -7.54651,-2.14186 -13.98828,-4.9668 -22.48507,-9.86047 -32.5492,-17.62627 -38.04297,-28.4082 -2.09275,-4.10716 -2.8233,-7.16313 -2.68164,-9.03125 0.14166,-1.86812 0.73462,-2.83397 2.76172,-4.06445 2.52654,-1.53366 5.81733,-2.15075 9.63867,-1.80664 z"
         id="path5878"
         inkscape:connector-curvature="0" />
      <path
         style="color:#000000;font-style:normal;font-variant:normal;font-weight:normal;font-stretch:normal;font-size:medium;line-height:normal;font-family:sans-serif;text-indent:0;text-align:start;text-decoration:none;text-decoration-line:none;letter-spacing:normal;word-spacing:normal;text-transform:none;writing-mode:lr-tb;direction:ltr;baseline-shift:baseline;text-anchor:start;display:inline;overflow:visible;visibility:visible;fill:#000000;fill-opacity:1;fill-rule:nonzero;stroke:none;enable-background:accumulate"
         d="m -129.6582,-110.86914 c -2.46575,0.0904 -4.79352,0.52195 -6.93946,1.34961 -4.29187,1.65531 -7.72571,5.10538 -9.25781,9.789061 -1.90525,5.823925 -0.13671,12.529038 3.58594,19.337891 3.72265,6.808853 9.60091,13.839046 17.07226,20.18164 10.9696,9.312335 22.95265,16.114349 33.615239,18.804688 7.49087,1.890081 13.088405,2.655566 17.759765,1.703125 4.671361,-0.952441 8.185894,-4.273442 9.703125,-8.634766 1.016981,-2.92371 0.582104,-6.000788 -0.384765,-9.330078 -0.96687,-3.329289 -2.599428,-6.945467 -4.728516,-10.703125 -4.258175,-7.515315 -10.510508,-15.570711 -17.642578,-22.107422 -11.720318,-10.741954 -24.23323,-17.542834 -35.01758,-19.693364 -2.69609,-0.53763 -5.29987,-0.78761 -7.76562,-0.69726 z"
         id="path5876"
         inkscape:connector-curvature="0" />
      <path
         style="color:#000000;font-style:normal;font-variant:normal;font-weight:normal;font-stretch:normal;font-size:medium;line-height:normal;font-family:sans-serif;text-indent:0;text-align:start;text-decoration:none;text-decoration-line:none;letter-spacing:normal;word-spacing:normal;text-transform:none;writing-mode:lr-tb;direction:ltr;baseline-shift:baseline;text-anchor:start;display:inline;overflow:visible;visibility:visible;fill:#000000;fill-opacity:1;fill-rule:nonzero;stroke:none;enable-background:accumulate"
         d="m -127.12109,-99.332031 c 1.95719,-0.1482 4.32089,0.01653 7.07421,0.609375 12.53541,2.699165 27.639963,13.806779 38.132818,28.771484 3.164747,4.513491 5.236613,8.357528 6.263671,11.300781 1.027059,2.943254 0.929292,4.813989 0.539063,5.714844 -0.390229,0.900855 -1.052956,1.543299 -3.277344,1.992188 -2.224388,0.448888 -5.784908,0.376404 -10.429687,-0.507813 -14.942761,-2.844597 -32.126411,-14.798613 -42.439451,-29.939453 -3.39702,-4.987304 -3.82908,-6.089451 -3.85938,-9.433594 -0.0357,-3.943733 1.12564,-5.929268 3.36719,-7.242187 1.12077,-0.65646 2.67172,-1.117425 4.62891,-1.265625 z"
         id="path5874"
         inkscape:connector-curvature="0" />
      <path
         style="color:#000000;font-style:normal;font-variant:normal;font-weight:normal;font-stretch:normal;font-size:medium;line-height:normal;font-family:sans-serif;text-indent:0;text-align:start;text-decoration:none;text-decoration-line:none;letter-spacing:normal;word-spacing:normal;text-transform:none;writing-mode:lr-tb;direction:ltr;baseline-shift:baseline;text-anchor:start;display:inline;overflow:visible;visibility:visible;fill:#000000;fill-opacity:1;fill-rule:nonzero;stroke:none;enable-background:accumulate"
         d="m -42.507812,-18.601562 c -5.952018,-0.217211 -11.345417,1.626719 -14.919922,5.708984 -4.839225,5.5267832 -4.802269,13.57555272 -1.539063,21.7421874 3.263206,8.1666346 9.71893,17.0063546 18.875,25.7460936 10.164129,9.701961 22.404585,16.251158 33.263672,18.822266 5.4295434,1.285554 10.534764,1.598951 15,0.580078 4.465236,-1.018873 8.409864,-3.614241 10.373047,-7.773438 2.035876,-4.313128 1.618596,-9.369915 -0.05664,-14.554687 C 16.813044,26.48515 13.795122,21.015177 9.8378906,15.585938 1.9234285,4.7274593 -9.7607694,-5.9541477 -22.572266,-12.541016 c -7.300497,-3.75345 -13.983529,-5.843336 -19.935546,-6.060546 z"
         id="path5872"
         inkscape:connector-curvature="0" />
      <path
         style="color:#000000;font-style:normal;font-variant:normal;font-weight:normal;font-stretch:normal;font-size:medium;line-height:normal;font-family:sans-serif;text-indent:0;text-align:start;text-decoration:none;text-decoration-line:none;letter-spacing:normal;word-spacing:normal;text-transform:none;writing-mode:lr-tb;direction:ltr;baseline-shift:baseline;text-anchor:start;display:inline;overflow:visible;visibility:visible;fill:#000000;fill-opacity:1;fill-rule:nonzero;stroke:none;enable-background:accumulate"
         d="m -37.123047,-7.1308594 c 4.331703,0.2828462 5.848433,0.8914365 13.927735,5.5410156 v -0.00195 c 8.578876,4.9376085 9.923623,5.9963659 16.7402339,13.1757808 7.6633345,8.071186 13.7807494,17.9589 15.0566406,23.13086 0.919637,3.727764 0.1406231,5.390708 -2.0839844,6.814453 -2.2246074,1.423745 -6.69601182,2.20344 -12.8125,1.089844 C -21.066064,39.929766 -36.071652,28.641614 -45.972656,12.171875 -50.34716,4.8950901 -50.84325,-0.35456806 -49.527344,-3.0410156 c 0.657953,-1.3432238 1.734805,-2.3618936 3.732422,-3.140625 1.997617,-0.7787314 4.912123,-1.1946798 8.671875,-0.9492188 z"
         id="path5870"
         inkscape:connector-curvature="0" />
      <path
         style="color:#000000;font-style:normal;font-variant:normal;font-weight:normal;font-stretch:normal;font-size:medium;line-height:normal;font-family:sans-serif;text-indent:0;text-align:start;text-decoration:none;text-decoration-line:none;letter-spacing:normal;word-spacing:normal;text-transform:none;writing-mode:lr-tb;direction:ltr;baseline-shift:baseline;text-anchor:start;display:inline;overflow:visible;visibility:visible;fill:#000000;fill-opacity:1;fill-rule:nonzero;stroke:none;enable-background:accumulate"
         d="m 41.519531,85.234375 c -1.385713,-0.06036 -2.748655,-0.02624 -4.083984,0.109375 -4.637851,0.47103 -8.550432,2.433323 -11.029297,5.625 -2.478865,3.191677 -3.4417,7.33969 -3.240234,11.80859 0.402931,8.93781 5.201615,19.63059 13.90625,30.66016 3.668484,4.64831 8.455416,9.92165 11.476562,12.42773 l 1.628906,1.35157 0.103516,-0.0488 c 6.370764,4.94916 14.994947,9.99678 21.429688,12.30078 4.260329,1.52545 9.545923,1.49534 14.535156,0.76172 4.989233,-0.73362 9.536732,-1.73053 12.445312,-5.17969 2.597484,-3.08035 3.230924,-7.2494 3.183594,-11.75195 -0.0473,-4.50256 -0.98935,-9.38538 -2.912109,-13.73633 C 93.656138,117.55435 83.385632,106.23542 71.988281,97.953125 62.015599,90.706121 51.219522,85.656916 41.519531,85.234375 Z"
         id="path5868"
         inkscape:connector-curvature="0" />
      <path
         style="color:#000000;font-style:normal;font-variant:normal;font-weight:normal;font-stretch:normal;font-size:medium;line-height:normal;font-family:sans-serif;text-indent:0;text-align:start;text-decoration:none;text-decoration-line:none;letter-spacing:normal;word-spacing:normal;text-transform:none;writing-mode:lr-tb;direction:ltr;baseline-shift:baseline;text-anchor:start;display:inline;overflow:visible;visibility:visible;fill:#000000;fill-opacity:1;fill-rule:nonzero;stroke:none;enable-background:accumulate"
         d="m 41.613281,96.544922 c 1.550813,-0.142561 3.400344,-0.08094 5.556641,0.263672 2.662945,0.425558 8.400154,2.76816 13.832031,5.792966 5.431877,3.02481 10.831518,6.78846 13.613281,9.57422 7.116832,7.12726 12.236383,14.91343 14.69336,21.3711 1.228488,3.22883 1.776423,6.11353 1.71289,8.30273 -0.06353,2.1892 -0.646609,3.56423 -1.58789,4.49609 -2.091286,2.07044 -9.595055,3.97945 -15.53125,2.71485 -9.754222,-2.07796 -21.450519,-10.80295 -30.865235,-23.94141 -7.25266,-10.12136 -9.554827,-18.69057 -8.572265,-23.1582 0.491281,-2.233821 1.475057,-3.517566 3.388672,-4.457034 0.956807,-0.469734 2.208953,-0.816423 3.759765,-0.958984 z"
         id="path5866"
         inkscape:connector-curvature="0" />
      <path
         style="color:#000000;font-style:normal;font-variant:normal;font-weight:normal;font-stretch:normal;font-size:medium;line-height:normal;font-family:sans-serif;text-indent:0;text-align:start;text-decoration:none;text-decoration-line:none;letter-spacing:normal;word-spacing:normal;text-transform:none;writing-mode:lr-tb;direction:ltr;baseline-shift:baseline;text-anchor:start;display:inline;overflow:visible;visibility:visible;fill:#000000;fill-opacity:1;fill-rule:nonzero;stroke:none;enable-background:accumulate"
         d="m 124.13867,192.58008 c -3.97189,-0.22257 -7.49528,0.47621 -10.5039,2.17383 -4.0115,2.26348 -6.57721,6.45694 -7.29102,11.4707 -0.71381,5.01376 0.16449,10.92409 2.55273,17.78516 3.76651,10.8205 15.68795,27.40286 24.86133,34.6914 14.50157,11.52199 28.75082,15.20025 38.89844,11.01953 5.07381,-2.09036 8.88961,-6.39333 10.36328,-12.00195 1.47367,-5.60862 0.80038,-12.38391 -2.13672,-20.09766 -5.56625,-14.61853 -17.10776,-27.0969 -33.45117,-36.61328 -8.80749,-5.12824 -16.67315,-8.05678 -23.29297,-8.42773 z"
         id="path5864"
         inkscape:connector-curvature="0" />
      <path
         style="color:#000000;font-style:normal;font-variant:normal;font-weight:normal;font-stretch:normal;font-size:medium;line-height:normal;font-family:sans-serif;text-indent:0;text-align:start;text-decoration:none;text-decoration-line:none;letter-spacing:normal;word-spacing:normal;text-transform:none;writing-mode:lr-tb;direction:ltr;baseline-shift:baseline;text-anchor:start;display:inline;overflow:visible;visibility:visible;fill:#000000;fill-opacity:1;fill-rule:nonzero;stroke:none;enable-background:accumulate"
         d="m 127.04102,203.98828 c 4.24643,0.39335 10.03404,2.29575 16.68554,6.13672 13.53043,7.81329 21.20941,16.25674 26.84961,29.40625 2.94417,6.86387 2.56326,12.34177 0.47656,15.70898 -2.08669,3.36722 -5.97491,5.3311 -12.42187,4.54297 -7.32948,-0.89597 -11.41986,-2.78835 -18.72461,-8.79101 -6.06956,-4.98763 -11.76796,-11.96019 -15.87305,-19.01367 -4.10508,-7.05349 -6.55233,-14.25493 -6.60742,-19.16211 -0.0333,-2.97741 0.62551,-4.96842 1.57617,-6.26172 0.95067,-1.29331 2.23664,-2.09634 4.33203,-2.47266 1.0477,-0.18816 2.29156,-0.22486 3.70704,-0.0937 z"
         id="path5862"
         inkscape:connector-curvature="0" />
      <path
         style="color:#000000;font-style:normal;font-variant:normal;font-weight:normal;font-stretch:normal;font-size:medium;line-height:normal;font-family:sans-serif;text-indent:0;text-align:start;text-decoration:none;text-decoration-line:none;letter-spacing:normal;word-spacing:normal;text-transform:none;writing-mode:lr-tb;direction:ltr;baseline-shift:baseline;text-anchor:start;display:inline;overflow:visible;visibility:visible;fill:#ff0000;fill-opacity:1;fill-rule:nonzero;stroke:none;enable-background:accumulate"
         d="m 205.55859,315.16211 c -1.95203,0.0256 -3.85745,0.34018 -5.79492,0.85742 -4.24858,1.13415 -7.89339,2.95122 -9.73047,6.66992 -1.83707,3.7187 -2.03193,8.2464 -2.11523,15.47852 l -0.16211,14.10937 5.12305,6.96875 c 3.15124,4.28647 6.8202,7.93627 10.68359,10.64258 2.9632,2.07574 7.91846,5.62671 10.93945,7.8418 10.59536,7.76883 27.05992,17.22301 35.24414,19.80078 2.33548,0.73559 4.33448,1.22218 6.20313,1.37305 1.86864,0.15086 3.75681,-0.0176 5.43164,-1.10352 1.67483,-1.0859 2.63993,-3.00201 2.93945,-4.79101 0.29953,-1.789 0.16056,-3.62321 -0.17969,-5.73829 -0.22269,-1.3842 -0.30989,-2.89007 -0.26953,-4.04296 0.0404,-1.1529 0.59086,-2.19601 0.0488,-1.35547 1.32649,-2.05733 1.08423,-3.5097 1.05078,-5.41993 -0.0334,-1.91022 -0.26824,-4.09812 -0.64648,-6.40624 -0.75648,-4.61626 -2.03172,-9.60468 -3.77734,-13.30274 v -0.002 c -1.41463,-2.9967 -4.07761,-7.46663 -6.25196,-10.55469 -6.70725,-9.52576 -11.75711,-13.78157 -26.24804,-22.11328 -7.38333,-4.24514 -12.16389,-6.76294 -16.41211,-8.03711 -2.12412,-0.63709 -4.12414,-0.90062 -6.07618,-0.875 z"
         id="path5860"
         inkscape:connector-curvature="0" />
      <path
         style="color:#000000;font-style:normal;font-variant:normal;font-weight:normal;font-stretch:normal;font-size:medium;line-height:normal;font-family:sans-serif;text-indent:0;text-align:start;text-decoration:none;text-decoration-line:none;letter-spacing:normal;word-spacing:normal;text-transform:none;writing-mode:lr-tb;direction:ltr;baseline-shift:baseline;text-anchor:start;display:inline;overflow:visible;visibility:visible;fill:#000000;fill-opacity:1;fill-rule:nonzero;stroke:none;enable-background:accumulate"
         d="m 285.74219,317.3418 c -1.87994,-0.0257 -3.6988,0.23377 -5.38281,0.76758 -3.36804,1.06761 -6.42466,3.43351 -7.375,7.0371 -1.02749,3.89647 -0.71197,9.54136 -0.1211,15.7129 0.59088,6.17153 1.50826,12.17052 3.09766,16.00195 1.7913,4.31831 6.72732,11.57938 12.23242,19.16797 5.50509,7.58858 11.19173,14.86321 14.86914,18.23437 4.24081,3.8876 8.63206,6.42591 13.60156,7.27149 4.9695,0.84558 10.26147,0.0234 16.45508,-2.00782 4.91994,-1.61348 8.7597,-3.79496 11.10938,-7.5 2.34967,-3.70503 3.00301,-8.29205 3.08789,-14.38672 0.0913,-6.56369 -1.0139,-12.29458 -4.10938,-18.02148 -3.09547,-5.7269 -8.00936,-11.41691 -15.45508,-18.75976 -6.72158,-6.62869 -9.72467,-8.85453 -19.42187,-14.36915 -6.23383,-3.54502 -13.16348,-7.03774 -16.83985,-8.20117 -1.92872,-0.61036 -3.86811,-0.92157 -5.74804,-0.94726 z"
         id="path5858"
         inkscape:connector-curvature="0" />
      <path
         style="color:#000000;font-style:normal;font-variant:normal;font-weight:normal;font-stretch:normal;font-size:medium;line-height:normal;font-family:sans-serif;text-indent:0;text-align:start;text-decoration:none;text-decoration-line:none;letter-spacing:normal;word-spacing:normal;text-transform:none;writing-mode:lr-tb;direction:ltr;baseline-shift:baseline;text-anchor:start;display:inline;overflow:visible;visibility:visible;fill:#ff0000;fill-opacity:1;fill-rule:nonzero;stroke:none;enable-background:accumulate"
         d="m 208.22852,326.75391 c 1.14127,-0.0405 2.29731,0.11815 3.7246,0.5 2.85459,0.76369 6.76943,2.6211 12.625,5.95703 14.85724,8.46414 20.80898,14.78926 26.4629,27.9707 2.29252,5.34272 2.5071,7.10156 2.22265,17.19336 -0.15649,5.55154 -0.72329,8.4894 -0.90039,9.29492 -0.39458,-0.0964 -0.78005,-0.15967 -1.79492,-0.5957 -8.11521,-3.4866 -19.11386,-9.58699 -27.39063,-15.21289 C 207.92315,361.49241 205.93391,359.93217 202,355.06641 c -1.96064,-2.42515 -2.45163,-3.00619 -2.77148,-4.41016 -0.31986,-1.40397 -0.36293,-4.27472 -0.28907,-10.14453 0.0783,-6.22928 0.49654,-9.45999 1.04297,-10.56445 0.27322,-0.55223 0.45098,-0.74477 1.09961,-1.13086 0.64863,-0.3861 1.81179,-0.8417 3.51563,-1.36329 1.36386,-0.41751 2.48958,-0.65871 3.63086,-0.69921 z"
         id="path5856"
         inkscape:connector-curvature="0" />
      <path
         style="color:#000000;font-style:normal;font-variant:normal;font-weight:normal;font-stretch:normal;font-size:medium;line-height:normal;font-family:sans-serif;text-indent:0;text-align:start;text-decoration:none;text-decoration-line:none;letter-spacing:normal;word-spacing:normal;text-transform:none;writing-mode:lr-tb;direction:ltr;baseline-shift:baseline;text-anchor:start;display:inline;overflow:visible;visibility:visible;fill:#000000;fill-opacity:1;fill-rule:nonzero;stroke:none;enable-background:accumulate"
         d="m 287.91211,328.80273 c 0.91972,0.0375 1.97205,0.2247 3.3457,0.60743 2.74731,0.76544 6.63089,2.39703 12.30469,5.15039 7.12277,3.45655 8.07019,4.17671 16.125,11.94336 9.6624,9.31679 14.94396,17.16002 16.50977,23.36914 0.43106,1.70932 0.40051,5.74556 -0.20704,9.27343 -0.30377,1.76394 -0.72727,3.44202 -1.18164,4.71485 -0.45436,1.27282 -1.07759,2.14143 -1.00976,2.07617 -0.0507,0.0487 -1.05757,0.73187 -2.40625,1.30469 -1.34869,0.57281 -3.07691,1.15926 -4.87696,1.65429 -3.60009,0.99008 -7.70518,1.54664 -9.32226,1.4043 -1.03562,-0.0911 -2.24373,-0.29283 -3.23828,-0.52734 -0.99455,-0.23451 -1.90191,-0.6227 -1.75391,-0.53711 -1.31921,-0.76558 -6.06756,-5.47174 -10.66601,-11.33594 -4.5996,-5.86566 -9.55242,-13.05847 -13.26563,-19.51562 -3.9619,-6.88967 -5.57215,-14.74716 -4.8418,-24.51758 0.20492,-2.74079 0.58974,-4.10132 0.70508,-4.30274 0.11534,-0.20141 -0.11706,-0.13643 1.22657,-0.47461 0.84578,-0.21285 1.63301,-0.32464 2.55273,-0.28711 z"
         id="path5854"
         inkscape:connector-curvature="0" />
      <path
         style="color:#000000;font-style:normal;font-variant:normal;font-weight:normal;font-stretch:normal;font-size:medium;line-height:normal;font-family:sans-serif;text-indent:0;text-align:start;text-decoration:none;text-decoration-line:none;letter-spacing:normal;word-spacing:normal;text-transform:none;writing-mode:lr-tb;direction:ltr;baseline-shift:baseline;text-anchor:start;display:inline;overflow:visible;visibility:visible;fill:#000000;fill-opacity:1;fill-rule:nonzero;stroke:none;enable-background:accumulate"
         d="m 376.20312,330.61914 c -2.06788,0.0141 -4.2186,0.22713 -6.33398,0.54688 -2.11538,0.31974 -4.15448,0.7701 -5.96094,1.36132 -1.80645,0.59123 -3.36694,1.19452 -4.77539,2.51954 -1.71944,1.61681 -2.04773,3.36555 -2.40625,5.33203 -0.35851,1.96648 -0.49273,4.21123 -0.46289,6.63281 0.0597,4.84315 0.78267,10.34305 2.26172,15.03125 4.3055,13.64695 14.98779,29.1551 26.42969,38.45898 h 0.002 l 0.20703,0.16993 0.19532,0.11132 c 5.5861,4.50419 8.30859,6.0013 16.44921,8.81446 8.32753,2.87773 16.32098,2.29176 22.28516,-1.46485 5.96418,-3.75661 9.56954,-10.66076 9.47461,-18.94531 -0.12502,-10.92555 -8.4114,-25.08544 -20.10156,-37.21484 -4.05383,-4.20608 -9.85233,-8.74535 -15.64649,-12.58399 -5.79416,-3.83864 -11.35748,-6.94171 -15.77929,-8.12305 -1.78596,-0.47712 -3.77001,-0.66055 -5.8379,-0.64648 z"
         id="path5852"
         inkscape:connector-curvature="0" />
      <path
         style="color:#000000;font-style:normal;font-variant:normal;font-weight:normal;font-stretch:normal;font-size:medium;line-height:normal;font-family:sans-serif;text-indent:0;text-align:start;text-decoration:none;text-decoration-line:none;letter-spacing:normal;word-spacing:normal;text-transform:none;writing-mode:lr-tb;direction:ltr;baseline-shift:baseline;text-anchor:start;display:inline;overflow:visible;visibility:visible;fill:#000000;fill-opacity:1;fill-rule:nonzero;stroke:none;enable-background:accumulate"
         d="m 378.06836,342.10352 c 7.56392,0.10395 16.42518,4.84499 27.53711,15.71484 3.47565,3.39994 7.60479,8.90793 10.85351,14.25781 3.24873,5.34988 5.6046,10.87173 5.9043,13.01563 1.31871,9.43375 -6.2821,16.50579 -16.1543,14.75781 -9.49261,-1.68077 -13.73572,-4.31144 -22.51953,-14.125 -9.87727,-11.03532 -16.54441,-26.02843 -16.63281,-35.79492 -0.0311,-3.43709 0.39688,-4.66674 1.06641,-5.35352 0.66952,-0.68678 2.60916,-1.54831 6.77929,-2.23633 1.03042,-0.17001 2.08546,-0.25117 3.16602,-0.23632 z"
         id="path5850"
         inkscape:connector-curvature="0" />
      <path
         style="color:#000000;font-style:normal;font-variant:normal;font-weight:normal;font-stretch:normal;font-size:medium;line-height:normal;font-family:sans-serif;text-indent:0;text-align:start;text-decoration:none;text-decoration-line:none;letter-spacing:normal;word-spacing:normal;text-transform:none;writing-mode:lr-tb;direction:ltr;baseline-shift:baseline;text-anchor:start;display:inline;overflow:visible;visibility:visible;fill:#000000;fill-opacity:1;fill-rule:nonzero;stroke:none;enable-background:accumulate"
         d="m 257.73242,392.04883 c 0.006,0.002 -0.0393,0.17047 0.01,0.13867 0.014,-0.009 -0.1727,0.006 -0.17578,0.006 0.044,-0.0565 0.12513,-0.0866 0.16601,-0.14453 z"
         id="path5848"
         inkscape:connector-curvature="0" />
      <path
         style="color:#000000;font-style:normal;font-variant:normal;font-weight:normal;font-stretch:normal;font-size:medium;line-height:normal;font-family:sans-serif;text-indent:0;text-align:start;text-decoration:none;text-decoration-line:none;letter-spacing:normal;word-spacing:normal;text-transform:none;writing-mode:lr-tb;direction:ltr;baseline-shift:baseline;text-anchor:start;display:inline;overflow:visible;visibility:visible;fill:#000000;fill-opacity:1;fill-rule:nonzero;stroke:none;enable-background:accumulate"
         d="m 458.9707,410.96484 c -1.99261,0.0487 -3.94898,0.30447 -5.80078,0.7461 -3.7036,0.88326 -7.06,2.44618 -9.32812,5.17773 -2.64097,3.18141 -3.25077,7.51559 -3.32813,12.33985 -0.0774,4.82491 0.67162,10.10802 2.38281,14.75 4.27166,11.58766 14.58619,27.56556 22.7461,34.82812 6.65221,5.92069 17.13178,11.5981 24.79297,13.08789 8.08694,1.57271 17.21449,-1.67196 23.58007,-7.90625 3.03137,-2.96875 4.45512,-7.10429 4.66211,-11.51953 0.207,-4.41524 -0.72458,-9.22415 -2.52929,-14.20703 -3.60943,-9.96576 -10.75558,-20.67482 -20.48828,-29.58594 -8.98524,-8.22675 -21.35832,-15.38799 -30.67188,-17.21094 -1.99634,-0.39071 -4.02496,-0.54866 -6.01758,-0.5 z"
         id="path5846"
         inkscape:connector-curvature="0" />
      <path
         style="color:#000000;font-style:normal;font-variant:normal;font-weight:normal;font-stretch:normal;font-size:medium;line-height:normal;font-family:sans-serif;text-indent:0;text-align:start;text-decoration:none;text-decoration-line:none;letter-spacing:normal;word-spacing:normal;text-transform:none;writing-mode:lr-tb;direction:ltr;baseline-shift:baseline;text-anchor:start;display:inline;overflow:visible;visibility:visible;fill:#000000;fill-opacity:1;fill-rule:nonzero;stroke:none;enable-background:accumulate"
         d="m 461.59766,422.45117 c 1.64774,-0.026 3.52898,0.14127 5.63476,0.55078 6.57124,1.27869 13.67068,5.28341 21.38477,12.48633 7.54573,7.04568 11.45417,12.11988 14.70312,18.92188 4.43629,9.28741 5.02782,15.09884 3.54297,18.28125 -0.56406,1.20891 -3.20096,3.79493 -6.40039,5.59179 -3.19567,1.79476 -6.97161,2.94528 -9.10937,2.91992 h -0.01 c -1.65595,-0.0218 -5.39168,-1.09564 -9.07813,-2.91796 -3.68644,-1.82232 -7.48857,-4.33462 -10.06835,-6.75 -5.6858,-5.32342 -12.219,-14.74273 -16.75977,-24.42774 -4.49934,-9.59656 -4.7361,-16.705 -2.79688,-20.31836 0.96962,-1.80667 2.38228,-2.99323 4.72461,-3.72656 1.17117,-0.36666 2.58468,-0.58533 4.23243,-0.61133 z"
         id="path5844"
         inkscape:connector-curvature="0" />
    </g>
    <path
       style="opacity:0.75;fill:none;stroke:#ff0000;stroke-width:2.8388133;stroke-linecap:butt;stroke-linejoin:miter;stroke-miterlimit:4;stroke-dasharray:2.83881317, 2.83881317;stroke-dashoffset:0;stroke-opacity:1"
       d="M 389.99694,89.199444 335.11661,120.88462"
       id="path5940"
       inkscape:connector-curvature="0" />
    <path
       style="fill:none;stroke:#000000;stroke-width:2.1661706;stroke-linecap:butt;stroke-linejoin:round;stroke-miterlimit:4;stroke-dasharray:none;stroke-opacity:1;marker-end:url(#marker5132)"
       d="M -93.898938,-189.00252 481.65365,143.35624"
       id="path5124"
       inkscape:connector-curvature="0" />
    <path
       style="fill:none;stroke:#000000;stroke-width:3.01623893;stroke-linecap:butt;stroke-linejoin:miter;stroke-miterlimit:4;stroke-dasharray:none;stroke-opacity:1;marker-end:url(#Arrow2Lend)"
       d="m -93.898938,-227.9931 -1.716419,-189.63326"
       id="path4614"
       inkscape:connector-curvature="0" />
    <path
       style="fill:none;stroke:#000000;stroke-width:3.1353209;stroke-linecap:butt;stroke-linejoin:round;stroke-miterlimit:4;stroke-dasharray:none;stroke-opacity:1"
       d="m -93.898938,-189.00252 v -39.12364"
       id="path6086"
       inkscape:connector-curvature="0" />
    <path
       style="fill:none;stroke:#0000ff;stroke-width:2.8388133;stroke-linecap:butt;stroke-linejoin:miter;stroke-miterlimit:4;stroke-dasharray:2.83881317, 2.83881317;stroke-dashoffset:0;stroke-opacity:1"
       d="M 170.96637,-206.07994 -94.518435,-359.61257"
       id="path6172"
       inkscape:connector-curvature="0" />
    <path
       style="fill:none;stroke:#000000;stroke-width:1px;stroke-linecap:butt;stroke-linejoin:miter;stroke-opacity:1"
       d="m -342.84948,-126.63822 -12.58119,7.26378 -12.58122,7.26378"
       id="path5709"
       inkscape:connector-curvature="0"
       sodipodi:nodetypes="ccc" />
    <path
       style="fill:none;stroke:#000000;stroke-width:1px;stroke-linecap:butt;stroke-linejoin:miter;stroke-opacity:1"
       d="m -116.38718,4.1098086 -12.58126,7.2637804 -12.58125,7.263781"
       id="path5711"
       inkscape:connector-curvature="0"
       sodipodi:nodetypes="ccc" />
    <path
       style="fill:none;stroke:#000000;stroke-width:1px;stroke-linecap:butt;stroke-linejoin:miter;stroke-opacity:1"
       d="M -354.84518,-119.67873 C -128.47339,11.017111 -128.35499,11.11846 -128.35499,11.11846"
       id="path5713"
       inkscape:connector-curvature="0" />
    <rect
       style="fill:#ffffff;fill-opacity:1;stroke:none;stroke-width:0.32887265"
       id="rect5715"
       width="50.538544"
       height="39.626808"
       x="-274.44302"
       y="-76.103584" />
    <flowRoot
       transform="matrix(0.93749993,0,0,0.93749993,-508.37087,-422.66795)"
       style="font-style:normal;font-weight:normal;line-height:0.01%;font-family:sans-serif;letter-spacing:0px;word-spacing:0px;fill:#000000;fill-opacity:1;stroke:none"
       id="flowRoot970"
       xml:space="preserve"><flowRegion
         id="flowRegion972"><rect
           y="28.606308"
           x="478.37125"
           height="51.639133"
           width="139.59587"
           id="rect974" /></flowRegion><flowPara
         style="font-size:40px;line-height:1.25"
         id="flowPara978"> </flowPara></flowRoot>    <flowRoot
       transform="matrix(0.93749993,0,0,0.93749993,-508.37087,-422.66795)"
       style="font-style:normal;font-weight:normal;line-height:0.01%;font-family:sans-serif;letter-spacing:0px;word-spacing:0px;fill:#000000;fill-opacity:1;stroke:none"
       id="flowRoot990"
       xml:space="preserve"><flowRegion
         id="flowRegion992"><rect
           y="575.07312"
           x="830.76569"
           height="51.071663"
           width="64.690773"
           id="rect994" /></flowRegion><flowPara
         style="font-size:40px;line-height:1.25"
         id="flowPara996">2t_c</flowPara></flowRoot>  </g>
  <g
     inkscape:label="Latex"
     id="layer4"
     inkscape:groupmode="layer"
     style="display:none">
    <flowRoot
       transform="matrix(0.93749994,0,0,0.93749994,-285.8955,-16.55183)"
       style="font-style:normal;font-weight:normal;line-height:0.01%;font-family:sans-serif;letter-spacing:0px;word-spacing:0px;fill:#000000;fill-opacity:1;stroke:none"
       id="flowRoot982"
       xml:space="preserve"><flowRegion
         id="flowRegion984"><rect
           y="26.336456"
           x="491.99036"
           height="95.333771"
           width="378.49777"
           id="rect986" /></flowRegion><flowPara
         style="font-size:40px;line-height:1.25"
         id="flowPara988">$\frac{1}{2}y_c$</flowPara></flowRoot>    <flowRoot
       transform="matrix(0.93749994,0,0,0.93749994,-263.55165,-13.89184)"
       style="font-style:normal;font-weight:normal;line-height:0.01%;font-family:sans-serif;letter-spacing:0px;word-spacing:0px;fill:#000000;fill-opacity:1;stroke:none"
       id="flowRoot998"
       xml:space="preserve"><flowRegion
         id="flowRegion1000"><rect
           y="576.77551"
           x="777.99164"
           height="64.690781"
           width="174.21109"
           id="rect1002" /></flowRegion><flowPara
         style="font-size:40px;line-height:1.25"
         id="flowPara1004">$2t_c$</flowPara></flowRoot>    <flowRoot
       xml:space="preserve"
       id="flowRoot1641"
       style="font-style:normal;font-weight:normal;font-size:40px;line-height:1.25;font-family:sans-serif;letter-spacing:0px;word-spacing:0px;fill:#000000;fill-opacity:1;stroke:none"
       transform="scale(0.93749994)"><flowRegion
         id="flowRegion1643"><rect
           id="rect1645"
           width="36.171837"
           height="68.015648"
           x="-55.432167"
           y="373.14771" /></flowRegion><flowPara
         id="flowPara1647">L</flowPara></flowRoot>    <flowRoot
       xml:space="preserve"
       id="flowRoot1649"
       style="font-style:normal;font-weight:normal;font-size:40px;line-height:1.25;font-family:sans-serif;letter-spacing:0px;word-spacing:0px;fill:#000000;fill-opacity:1;stroke:none"
       transform="scale(0.93749994)"><flowRegion
         id="flowRegion1651"><rect
           id="rect1653"
           width="105.99188"
           height="96.368813"
           x="30.495522"
           y="-46.765022" /></flowRegion><flowPara
         id="flowPara1655">y</flowPara></flowRoot>    <flowRoot
       xml:space="preserve"
       id="flowRoot1657"
       style="font-style:normal;font-weight:normal;font-size:40px;line-height:1.25;font-family:sans-serif;letter-spacing:0px;word-spacing:0px;fill:#000000;fill-opacity:1;stroke:none"
       transform="matrix(0.93749994,0,0,0.93749994,-3.00943,15.04713)"><flowRegion
         id="flowRegion1659"><rect
           id="rect1661"
           width="61.07291"
           height="65.318054"
           x="751.07098"
           y="586.10388" /></flowRegion><flowPara
         id="flowPara1663">t</flowPara></flowRoot>  </g>
</svg>
