<?xml version="1.0" encoding="UTF-8" standalone="no"?>
<!-- Created with Inkscape (http://www.inkscape.org/) -->

<svg
   xmlns:dc="http://purl.org/dc/elements/1.1/"
   xmlns:cc="http://creativecommons.org/ns#"
   xmlns:rdf="http://www.w3.org/1999/02/22-rdf-syntax-ns#"
   xmlns:svg="http://www.w3.org/2000/svg"
   xmlns="http://www.w3.org/2000/svg"
   xmlns:sodipodi="http://sodipodi.sourceforge.net/DTD/sodipodi-0.dtd"
   xmlns:inkscape="http://www.inkscape.org/namespaces/inkscape"
   width="161.80482mm"
   height="126.37703mm"
   viewBox="0 0 573.32419 447.79259"
   id="svg2"
   version="1.1"
   inkscape:version="0.92.1 r15371"
   sodipodi:docname="schematic.svg"
   inkscape:export-filename="\\khensu\Home03\esch2\Desktop\apparatus1.png"
   inkscape:export-xdpi="900.00299"
   inkscape:export-ydpi="900.00299">
  <sodipodi:namedview
     id="base"
     pagecolor="#ffffff"
     bordercolor="#666666"
     borderopacity="1.0"
     inkscape:pageopacity="0.0"
     inkscape:pageshadow="2"
     inkscape:zoom="0.95747087"
     inkscape:cx="949.73453"
     inkscape:cy="290.01215"
     inkscape:document-units="px"
     inkscape:current-layer="g5291"
     showgrid="true"
     showborder="false"
     inkscape:window-width="2560"
     inkscape:window-height="1392"
     inkscape:window-x="0"
     inkscape:window-y="0"
     inkscape:window-maximized="1"
     inkscape:snap-grids="false"
     inkscape:object-nodes="true"
     inkscape:snap-others="true"
     fit-margin-top="0"
     fit-margin-left="0"
     fit-margin-right="0"
     fit-margin-bottom="0"
     inkscape:snap-to-guides="true"
     inkscape:snap-nodes="true"
     inkscape:snap-global="true"
     inkscape:snap-midpoints="true" />
  <defs
     id="defs4">
    <marker
       inkscape:isstock="true"
       style="overflow:visible"
       id="marker4978"
       refX="0"
       refY="0"
       orient="auto"
       inkscape:stockid="Arrow2Lend">
      <path
         inkscape:connector-curvature="0"
         transform="matrix(-1.1,0,0,-1.1,-1.1,0)"
         d="M 8.7185878,4.0337352 -2.2072895,0.01601326 8.7185884,-4.0017078 c -1.7454984,2.3720609 -1.7354408,5.6174519 -6e-7,8.035443 z"
         style="fill:#2aff80;fill-opacity:1;fill-rule:evenodd;stroke:#2aff80;stroke-width:0.625;stroke-linejoin:round;stroke-opacity:1"
         id="path4980" />
    </marker>
    <marker
       inkscape:stockid="DotL"
       orient="auto"
       refY="0"
       refX="0"
       id="DotL"
       style="overflow:visible"
       inkscape:isstock="true">
      <path
         id="path4528"
         d="m -2.5,-1 c 0,2.76 -2.24,5 -5,5 -2.76,0 -5,-2.24 -5,-5 0,-2.76 2.24,-5 5,-5 2.76,0 5,2.24 5,5 z"
         style="fill-rule:evenodd;stroke:#000000;stroke-width:1.00000003pt"
         transform="matrix(0.8,0,0,0.8,5.92,0.8)"
         inkscape:connector-curvature="0" />
    </marker>
    <marker
       inkscape:isstock="true"
       style="overflow:visible"
       id="marker5132"
       refX="0"
       refY="0"
       orient="auto"
       inkscape:stockid="Arrow2Lend">
      <path
         transform="matrix(-1.1,0,0,-1.1,-1.1,0)"
         d="M 8.7185878,4.0337352 -2.2072895,0.01601326 8.7185884,-4.0017078 c -1.7454984,2.3720609 -1.7354408,5.6174519 -6e-7,8.035443 z"
         style="fill:#000000;fill-opacity:1;fill-rule:evenodd;stroke:#000000;stroke-width:0.625;stroke-linejoin:round;stroke-opacity:1"
         id="path5134"
         inkscape:connector-curvature="0" />
    </marker>
    <clipPath
       clipPathUnits="userSpaceOnUse"
       id="clipPath4798">
      <rect
         style="opacity:0.46000001;fill:#8a916f;fill-opacity:1;stroke:none;stroke-width:2.0999999;stroke-linecap:round;stroke-linejoin:miter;stroke-miterlimit:4;stroke-dasharray:none;stroke-opacity:1"
         id="rect4800"
         width="353.62881"
         height="343.94034"
         x="-1082.8315"
         y="140.27184" />
    </clipPath>
    <clipPath
       clipPathUnits="userSpaceOnUse"
       id="clipPath4821">
      <rect
         style="opacity:0.46000001;fill:#8a916f;fill-opacity:1;stroke:none;stroke-width:2.0999999;stroke-linecap:round;stroke-linejoin:miter;stroke-miterlimit:4;stroke-dasharray:none;stroke-opacity:1"
         id="rect4823"
         width="754.73102"
         height="560.96185"
         x="-524.77618"
         y="-1452.511" />
    </clipPath>
    <clipPath
       clipPathUnits="userSpaceOnUse"
       id="clipPath5144">
      <rect
         style="opacity:0.46000001;fill:#cccccc;fill-opacity:1;stroke:#9955ff;stroke-width:6.08138132;stroke-linecap:round;stroke-linejoin:miter;stroke-miterlimit:4;stroke-dasharray:none;stroke-opacity:1"
         id="rect5146"
         width="1896.2947"
         height="1211.2172"
         x="-4936.3921"
         y="-1548.9507" />
    </clipPath>
    <clipPath
       clipPathUnits="userSpaceOnUse"
       id="clipPath5148">
      <rect
         style="opacity:0.46000001;fill:#cccccc;fill-opacity:1;stroke:#9955ff;stroke-width:6.08138132;stroke-linecap:round;stroke-linejoin:miter;stroke-miterlimit:4;stroke-dasharray:none;stroke-opacity:1"
         id="rect5150"
         width="1896.2947"
         height="1211.2172"
         x="-4732.9346"
         y="-1552.826" />
    </clipPath>
    <clipPath
       clipPathUnits="userSpaceOnUse"
       id="clipPath5152">
      <rect
         style="opacity:0.46000001;fill:#cccccc;fill-opacity:1;stroke:#9955ff;stroke-width:6.08138132;stroke-linecap:round;stroke-linejoin:miter;stroke-miterlimit:4;stroke-dasharray:none;stroke-opacity:1"
         id="rect5154"
         width="1896.2947"
         height="1211.2172"
         x="-4732.9346"
         y="-1552.826" />
    </clipPath>
    <clipPath
       clipPathUnits="userSpaceOnUse"
       id="clipPath4350">
      <rect
         style="opacity:0.65799997;fill:#ffffff"
         id="rect4352"
         width="1266.905"
         height="1153.3049"
         x="-3310.7886"
         y="-1477.2936" />
    </clipPath>
  </defs>
  <metadata
     id="metadata7">
    <rdf:RDF>
      <cc:Work
         rdf:about="">
        <dc:format>image/svg+xml</dc:format>
        <dc:type
           rdf:resource="http://purl.org/dc/dcmitype/StillImage" />
        <dc:title></dc:title>
      </cc:Work>
    </rdf:RDF>
  </metadata>
  <g
     inkscape:label="Layer 1"
     inkscape:groupmode="layer"
     id="layer1"
     transform="translate(1473.5817,459.09621)">
    <g
       id="g5244"
       transform="matrix(0.82402667,0,0,0.82402667,5.3159071,79.02655)">
      <g
         transform="matrix(0.39910438,0,0,0.39910438,-275.44638,28.892846)"
         id="g5237">
        <g
           id="g5310">
          <g
             id="g5291">
            <g
               transform="translate(117.2707,-12.878766)"
               style="fill:#ffffff;stroke:#000000;stroke-width:1.52034533;stroke-miterlimit:4;stroke-dasharray:none;stroke-opacity:1"
               id="g4764" />
            <flowRoot
               xml:space="preserve"
               id="flowRoot4942"
               style="font-style:normal;font-weight:normal;line-height:0.01%;font-family:sans-serif;letter-spacing:0px;word-spacing:0px;fill:#000000;fill-opacity:1;stroke:none;stroke-width:1px;stroke-linecap:butt;stroke-linejoin:miter;stroke-opacity:1"
               transform="matrix(3.0406906,0,0,3.0406906,-1274.663,-692.71008)"><flowRegion
                 id="flowRegion4944"><rect
                   id="rect4946"
                   width="814.69666"
                   height="1095.8751"
                   x="-832.72095"
                   y="-352.26199" /></flowRegion><flowPara
                 id="flowPara4948"
                 style="font-size:40px;line-height:1.25"> </flowPara></flowRoot>            <path
               inkscape:connector-curvature="0"
               id="path4461"
               d="m -3461.1558,-566.68651 c -14.6051,0.39213 -26.7152,4.01064 -24.6788,14.52145 v 113.25693 c -44.8215,8.91001 -22.9961,-25.93682 -27.9415,-43.20731 -2.4373,-27.05396 4.8047,-55.48477 -3.4704,-81.70832 -21.8079,-1.22808 -73.0193,-9.97161 -64.9695,14.98234 v 109.93329 c -44.8162,8.90868 -22.9819,-25.9418 -27.9317,-43.20731 -2.4373,-27.05396 4.8047,-55.48477 -3.4704,-81.70832 -21.8079,-1.22808 -73.0193,-9.97161 -64.9695,14.98234 v 109.93329 c -44.8216,8.91001 -22.9961,-25.93682 -27.9416,-43.20731 -2.4373,-27.05396 4.8047,-55.48477 -3.4704,-81.70832 -21.806,-1.22925 -73.0103,-9.96992 -64.9596,14.98234 v 109.93329 c -44.8216,8.91001 -22.9961,-25.93682 -27.9416,-43.20731 -2.4373,-27.05396 4.8047,-55.48477 -3.4704,-81.70832 -21.8079,-1.22808 -73.0193,-9.97161 -64.9695,14.98234 v 109.93329 c -44.8162,8.90868 -22.9819,-25.9418 -27.9317,-43.20731 -2.4373,-27.05396 4.8047,-55.48477 -3.4704,-81.70832 -20.7105,-0.24129 -70.1721,-10.58619 -67.6587,11.6587 v 113.25693 c -44.816,8.90868 -22.9818,-25.9418 -27.9317,-43.20731 -2.4375,-27.05396 4.8046,-55.48477 -3.4702,-81.70832 -21.8079,-1.22808 -73.0197,-9.97161 -64.9696,14.98234 v 109.93329 c -44.8216,8.91001 -22.996,-25.93682 -27.9414,-43.20731 -2.4375,-27.05396 4.8046,-55.48477 -3.4707,-81.70832 -21.8059,-1.22925 -73.01,-9.96992 -64.9595,14.98234 v 109.93329 c -44.8216,8.91001 -22.9965,-25.93682 -27.9413,-43.20731 -2.4375,-27.05396 4.8046,-55.48477 -3.4707,-81.70832 -21.8079,-1.22808 -73.0192,-9.97161 -64.9696,14.98234 v 109.93329 c -44.8161,8.90868 -22.9819,-25.9418 -27.9318,-43.20731 -2.437,-27.05396 4.8051,-55.48477 -3.4702,-81.70832 -21.8079,-1.22808 -73.0192,-9.97161 -64.9696,14.98234 v 109.93329 c -44.8216,8.91001 -22.996,-25.93682 -27.9414,-43.20731 -2.4375,-27.05396 4.8047,-55.48477 -3.4707,-81.70832 -21.8058,-1.22925 -73.01,-9.96992 -64.9594,14.98234 v 109.93329 c -44.8217,8.91001 -22.996,-25.93682 -27.9414,-43.20731 -2.4375,-27.05396 4.8046,-55.48477 -3.4707,-81.70832 -21.8079,-1.22808 -73.0192,-9.97161 -64.9696,14.98234 v 109.93329 c -44.8161,8.90868 -22.9819,-25.9418 -27.9313,-43.20731 -2.4375,-27.05396 4.8047,-55.48477 -3.4707,-81.70832 -21.8079,-1.22808 -73.0191,-9.97161 -64.9696,14.98234 v 109.93329 c -44.8216,8.91001 -22.996,-25.93682 -27.9413,-43.20731 -2.4375,-27.05396 4.8041,-55.48477 -3.4702,-81.70832 -21.8069,-1.22925 -73.0106,-9.96992 -64.96,14.98234 v 109.93329 c -44.8216,8.91001 -22.996,-25.93682 -27.9414,-43.20731 -2.4375,-27.05396 4.8046,-55.48477 -3.4707,-81.70832 -21.8079,-1.22808 -73.0192,-9.97161 -64.9691,14.98234 v 109.93329 c -44.8165,8.90868 -22.9823,-25.9418 -27.9317,-43.20731 -2.4375,-27.05396 4.8046,-55.48477 -3.4708,-81.70832 -21.8078,-1.22808 -73.0191,-9.97161 -64.9695,14.98234 v 109.93329 c -44.8212,8.91001 -22.9961,-25.93682 -27.9414,-43.20731 -2.4375,-27.05396 4.8046,-55.48477 -3.4702,-81.70832 -21.8079,-1.22808 -73.0197,-9.97161 -64.9696,14.98234 v 109.93329 c -44.8161,8.90868 -22.9819,-25.9418 -27.9318,-43.20731 -2.4375,-27.05396 4.8047,-55.48477 -3.4702,-81.70832 -21.8079,-1.22808 -73.0196,-9.97161 -64.9696,14.98234 v 109.93329 c -44.8165,8.90868 -22.9818,-25.9418 -27.9317,-43.20731 -2.4375,-27.05396 4.8046,-55.48477 -3.4707,-81.70832 -21.8074,-1.22808 -73.0192,-9.97161 -64.9691,14.98234 v 109.93329 c -44.8216,8.91001 -22.9965,-25.93682 -27.9419,-43.20731 -2.437,-27.05396 4.8046,-55.48477 -3.4702,-81.70832 -21.8059,-1.22925 -73.0106,-9.96992 -64.9595,14.98234 v 109.93329 c -44.8216,8.91001 -22.9965,-25.93682 -27.9418,-43.20731 -2.437,-27.05396 4.8046,-55.48477 -3.4703,-81.70832 -21.8078,-1.22808 -73.0191,-9.97161 -64.9695,14.98234 v 109.93329 c -44.8161,8.90868 -22.9819,-25.9418 -27.9318,-43.20731 -2.4375,-27.05396 4.8046,-55.48477 -3.4702,-81.70832 -21.8079,-1.22808 -73.0197,-9.97161 -64.9696,14.98234 v 109.93329 c -44.8216,8.91001 -22.996,-25.93682 -27.9414,-43.20731 -2.4375,-27.05396 4.8047,-55.48477 -3.4707,-81.70832 -21.8058,-1.22925 -73.01,-9.96992 -64.9594,14.98234 v 109.93329 c -44.8217,8.91001 -22.9961,-25.93682 -27.9419,-43.20731 -2.437,-27.05396 4.8051,-55.48477 -3.4702,-81.70832 -21.8079,-1.22808 -73.0192,-9.97161 -64.9696,14.98234 v 109.93329 c -44.8161,8.90868 -22.9819,-25.9418 -27.9318,-43.20731 -2.437,-27.05396 4.8047,-55.48477 -3.4702,-81.70832 -21.8079,-1.22808 -73.0191,-9.97161 -64.9696,14.98234 v 109.93329 c -44.8216,8.91001 -22.996,-25.93682 -27.9413,-43.20731 -2.4375,-27.05396 4.8046,-55.48477 -3.4708,-81.70832 -30.8527,-2.20224 -67.5432,-3.67588 -97.8841,0.64266 -5.8247,72.87468 -0.8227,147.03661 -2.4917,220.40531 4.1587,14.97396 -14.748,48.40017 25.3115,43.26574 h 2478.4614 c 22.3251,-11.95001 4.3318,-38.71292 10.1246,-56.50186 -1.4214,-68.50583 2.8258,-137.81757 -2.0961,-205.82544 -7.944,-2.40645 -25.0431,-5.24125 -39.6481,-4.84916 z"
               style="fill:#2aff80;fill-opacity:1;fill-rule:evenodd;stroke:none;stroke-width:1.52034533;stroke-linecap:round;stroke-linejoin:miter;stroke-miterlimit:4;stroke-dasharray:none;stroke-opacity:1"
               clip-path="url(#clipPath5152)"
               transform="translate(1040.5587,-108.36764)" />
            <path
               style="color:#000000;font-style:normal;font-variant:normal;font-weight:normal;font-stretch:normal;font-size:medium;line-height:normal;font-family:sans-serif;text-indent:0;text-align:start;text-decoration:none;text-decoration-line:none;text-decoration-style:solid;text-decoration-color:#000000;letter-spacing:normal;word-spacing:normal;text-transform:none;writing-mode:lr-tb;direction:ltr;baseline-shift:baseline;text-anchor:start;white-space:normal;clip-rule:nonzero;display:inline;overflow:visible;visibility:visible;opacity:1;isolation:auto;mix-blend-mode:normal;color-interpolation:sRGB;color-interpolation-filters:linearRGB;solid-color:#000000;solid-opacity:1;fill:#d42aff;fill-opacity:1;fill-rule:nonzero;stroke:#0000ff;stroke-width:15.44670868;stroke-linecap:butt;stroke-linejoin:miter;stroke-miterlimit:4;stroke-dasharray:none;stroke-dashoffset:0;stroke-opacity:1;color-rendering:auto;image-rendering:auto;shape-rendering:auto;text-rendering:auto;enable-background:accumulate"
               d="m -4438.7504,-1355.8011 c -140.3882,-1.3644 -280.35,-0.075 -392.7571,3.1027 -112.4072,3.1776 -197.2514,8.2466 -227.425,14.4343 -99.2083,20.3458 -199.3343,88.4684 -274.8188,175.0433 -75.4852,86.5749 -126.3282,191.59856 -126.9477,285.75058 -0.3258,49.51155 35.062,113.33497 85.2752,168.53826 50.2132,55.20325 115.2545,101.78442 174.2584,116.79467 13.9643,3.55231 46.5077,6.90676 93.3624,9.93619 46.8547,3.0294 108.015,5.73647 179.1814,7.9755 142.3325,4.47808 324.7009,7.10571 512.7478,6.80084 375.2114,-0.60836 573.14,-3.06177 688.7059,-27.10282 57.7829,-12.02054 94.9769,-29.44299 123.4347,-54.7303 28.4578,-25.28728 48.1798,-58.43467 71.0267,-101.91212 44.4906,-84.66622 40.7634,-177.78104 -5.6789,-268.5829 -46.4424,-90.8017 -135.5974,-179.2962 -261.9685,-254.7409 -62.1288,-37.0915 -97.7125,-56.2135 -179.7689,-66.6637 -82.0565,-10.4501 -210.5871,-12.2335 -458.6276,-14.6436 z m -7e-4,0.1103 c 248.0402,2.4102 376.5705,4.1885 458.6147,14.6371 82.044,10.4486 117.6027,29.5599 179.73,66.6504 126.3585,75.4372 215.4998,163.9177 261.9298,254.6953 46.43,90.77764 50.1476,183.84981 5.673,268.48542 -22.8455,43.47486 -42.559,76.61351 -71.0005,101.88636 -28.4415,25.27282 -65.6108,42.68643 -123.3826,54.70464 -115.5436,24.0364 -313.4753,26.48811 -688.6861,27.09647 -188.0459,0.30478 -370.417,-2.32289 -512.7481,-6.80083 -71.1655,-2.239 -132.3221,-4.93969 -179.1748,-7.96899 -46.853,-3.0293 -79.408,-6.38956 -93.349,-9.93609 -58.9714,-15.00191 -123.9987,-61.57038 -174.201,-116.76187 -50.2022,-55.19149 -85.575,-119.00643 -85.2496,-168.46664 0.6192,-94.11426 51.4489,-199.11877 126.9211,-285.67937 75.4722,-86.5606 175.5842,-154.672 274.7603,-175.0112 30.1464,-6.1821 115.0069,-11.2504 227.4124,-14.4279 112.4051,-3.1775 252.3632,-4.4672 392.7504,-3.1028 z"
               id="path3472"
               inkscape:connector-curvature="0"
               sodipodi:nodetypes="sscsssssssssssssssssssssssssssscss"
               clip-path="url(#clipPath5148)"
               transform="translate(1040.5587,-108.36764)" />
            <path
               sodipodi:type="inkscape:offset"
               inkscape:radius="-18.037201"
               inkscape:original="M -3663.1992 -560.83789 C -3671.0207 -560.28549 -3681.8361 -560.79899 -3686.9062 -553.39258 C -3688.2845 -545.24969 -3686.7029 -536.60938 -3687.293 -528.28906 L -3687.293 -433.375 C -3696.8844 -431.70364 -3709.7261 -428.89397 -3717.041 -437.3418 C -3724.0023 -448.08556 -3717.75 -461.27218 -3718.4727 -472.92188 C -3722.8196 -501.14281 -3714.1082 -530.2994 -3722.2148 -558.04102 C -3740.7295 -558.94638 -3759.8438 -563.20732 -3777.8477 -557.87891 C -3783.6456 -556.55087 -3785.9689 -550.06458 -3783.6738 -544.9668 L -3783.6738 -433.375 C -3793.2634 -431.70373 -3806.1048 -428.8937 -3813.416 -437.34375 C -3820.6567 -448.59742 -3813.5901 -462.32389 -3814.9551 -474.57227 C -3819.0307 -502.23917 -3810.5577 -530.85417 -3818.5859 -558.04102 C -3837.107 -558.91804 -3856.2445 -563.25288 -3874.25 -557.86719 C -3880.0068 -556.51657 -3882.3359 -550.05541 -3880.0449 -544.9668 L -3880.0449 -433.375 C -3889.6384 -431.70324 -3902.486 -428.89267 -3909.7988 -437.34766 C -3917.0364 -448.6112 -3909.9675 -462.34269 -3911.3379 -474.59961 C -3915.3997 -502.23712 -3906.9551 -530.97827 -3914.9668 -558.04102 C -3933.4353 -558.92688 -3952.5132 -563.23474 -3970.5938 -557.87891 C -3976.3452 -556.52367 -3978.7692 -550.08896 -3976.416 -544.9668 L -3976.416 -433.375 C -3986.0084 -431.70375 -3998.8498 -428.89383 -4006.166 -437.3418 C -4013.1172 -448.07681 -4006.8903 -461.24299 -4007.5957 -472.88477 C -4011.9412 -501.10546 -4003.2385 -530.37993 -4011.3398 -558.04102 C -4029.8578 -558.95122 -4048.9696 -563.20012 -4066.9727 -557.87891 C -4072.78 -556.55442 -4075.0953 -550.06548 -4072.7988 -544.9668 L -4072.7988 -433.375 C -4082.3885 -431.70341 -4095.2296 -428.894 -4102.541 -437.34375 C -4109.79 -448.58564 -4102.6977 -462.34467 -4104.0801 -474.57227 C -4108.1531 -502.2289 -4099.6923 -530.80781 -4107.6953 -557.98633 C -4126.7145 -558.40448 -4146.0186 -563.46463 -4164.7617 -558.39453 C -4170.4215 -557.24765 -4172.9069 -551.50105 -4171.8594 -546.28906 L -4171.8594 -433.375 C -4181.449 -431.70368 -4194.2903 -428.8938 -4201.6016 -437.34375 C -4208.8412 -448.59755 -4201.7758 -462.32402 -4203.1406 -474.57227 C -4207.2163 -502.23917 -4198.7432 -530.85417 -4206.7715 -558.04102 C -4225.2925 -558.91806 -4244.43 -563.25285 -4262.4355 -557.86719 C -4268.199 -556.51904 -4270.5188 -550.0548 -4268.2305 -544.9668 L -4268.2305 -433.375 C -4277.824 -431.70326 -4290.6716 -428.89273 -4297.9844 -437.34766 C -4304.9372 -448.07358 -4298.6894 -461.26694 -4299.4102 -472.88477 C -4303.7447 -501.08753 -4295.0667 -530.50083 -4303.1523 -558.04102 C -4321.6204 -558.94042 -4340.6801 -563.21258 -4358.7637 -557.88477 C -4364.5144 -556.53198 -4366.9843 -550.0988 -4364.6016 -544.9668 L -4364.6016 -433.375 C -4374.194 -431.70376 -4387.0353 -428.89385 -4394.3516 -437.3418 C -4401.3027 -448.07702 -4395.0759 -461.24296 -4395.7812 -472.88477 C -4400.1249 -501.10268 -4391.427 -530.38187 -4399.5234 -558.04102 C -4418.0421 -558.95096 -4437.1545 -563.20024 -4455.1582 -557.87891 C -4460.9656 -556.55442 -4463.2808 -550.06548 -4460.9844 -544.9668 L -4460.9844 -433.375 C -4470.574 -431.70326 -4483.4152 -428.89407 -4490.7266 -437.34375 C -4497.9657 -448.59743 -4490.9001 -462.32409 -4492.2656 -474.57227 C -4496.3403 -502.24765 -4487.8673 -530.84573 -4495.8965 -558.04102 C -4514.4118 -558.94817 -4533.5246 -563.20499 -4551.5293 -557.87891 C -4557.3272 -556.54972 -4559.6547 -550.06703 -4557.3555 -544.9668 L -4557.3555 -433.375 C -4566.8567 -431.73024 -4579.3254 -428.97412 -4586.8066 -436.97266 C -4593.9587 -447.04178 -4588.2813 -460.0129 -4588.5156 -471.10742 C -4592.8169 -499.54813 -4584.4317 -529.15602 -4591.959 -556.93359 C -4593.7769 -559.53733 -4599.1161 -557.88935 -4602.3184 -558.86523 C -4617.9842 -559.73039 -4634.4767 -562.91577 -4649.5273 -557.15625 C -4654.4716 -555.31239 -4655.5963 -549.41233 -4653.7266 -544.9668 L -4653.7266 -433.375 C -4663.3201 -431.70333 -4676.1675 -428.89256 -4683.4805 -437.34766 C -4690.718 -448.6112 -4683.6491 -462.34269 -4685.0195 -474.59961 C -4689.0818 -502.23872 -4680.6359 -530.97584 -4688.6484 -558.04102 C -4707.1671 -558.95108 -4726.2795 -563.20016 -4744.2832 -557.87891 C -4750.0825 -556.54775 -4752.4345 -550.07565 -4750.1094 -544.9668 L -4750.1094 -433.375 C -4759.699 -431.70327 -4772.5401 -428.89408 -4779.8516 -437.34375 C -4786.8086 -448.06893 -4780.5552 -461.26601 -4781.2773 -472.88477 C -4785.6227 -501.10612 -4776.9203 -530.37985 -4785.0215 -558.04102 C -4803.5362 -558.94638 -4822.6504 -563.20732 -4840.6543 -557.87891 C -4846.4522 -556.55087 -4848.7755 -550.06458 -4846.4805 -544.9668 L -4846.4805 -433.375 C -4855.9817 -431.7301 -4868.4503 -428.97417 -4875.9316 -436.97266 C -4883.0784 -447.04996 -4877.4146 -460.00511 -4877.6387 -471.11133 C -4882.0219 -499.93153 -4873.2952 -529.70585 -4881.4023 -558.04102 C -4899.8843 -558.93724 -4918.9664 -563.22715 -4937.0586 -557.86719 C -4942.8778 -556.53767 -4945.134 -550.04669 -4942.8516 -544.9668 L -4942.8516 -433.375 C -4952.4451 -431.70326 -4965.2927 -428.89273 -4972.6055 -437.34766 C -4979.5583 -448.07358 -4973.3106 -461.26694 -4974.0312 -472.88477 C -4978.3659 -501.08753 -4969.6878 -530.50083 -4977.7734 -558.04102 C -4996.2846 -558.93196 -5015.3958 -563.22335 -5033.3926 -557.88477 C -5039.1755 -556.54184 -5041.5759 -550.08969 -5039.2324 -544.9668 L -5039.2324 -433.375 C -5048.8238 -431.70349 -5061.6715 -428.89212 -5068.9805 -437.34961 C -5075.9308 -448.09636 -5069.6802 -461.27784 -5070.4023 -472.92188 C -5074.7489 -501.12601 -5066.0442 -530.39559 -5074.1465 -558.04102 C -5092.6645 -558.95133 -5111.7763 -563.20005 -5129.7793 -557.87891 C -5135.5867 -556.55442 -5137.9019 -550.06548 -5135.6055 -544.9668 L -5135.6055 -433.375 C -5145.197 -431.70365 -5158.0386 -428.89394 -5165.3535 -437.3418 C -5172.3148 -448.08556 -5166.0625 -461.27218 -5166.7852 -472.92188 C -5171.1326 -501.14215 -5162.421 -530.30132 -5170.5273 -558.04102 C -5189.0526 -558.94576 -5208.18 -563.21491 -5226.1914 -557.86719 C -5231.9739 -556.52719 -5234.2775 -550.05439 -5231.9863 -544.9668 L -5231.9863 -433.375 C -5241.5759 -431.70373 -5254.4173 -428.8937 -5261.7285 -437.34375 C -5268.9692 -448.59742 -5261.9026 -462.32389 -5263.2676 -474.57227 C -5267.3437 -502.23919 -5258.8701 -530.85416 -5266.8984 -558.04102 C -5285.4195 -558.91804 -5304.557 -563.25288 -5322.5625 -557.86719 C -5328.3214 -556.51867 -5330.6454 -550.05135 -5328.3574 -544.9668 L -5328.3574 -433.375 C -5337.9491 -431.70326 -5350.796 -428.89238 -5358.1055 -437.34961 C -5365.0538 -448.0959 -5358.8059 -461.27425 -5359.5273 -472.92188 C -5363.8693 -501.1153 -5355.1762 -530.42056 -5363.2695 -558.04102 C -5381.7831 -558.95197 -5400.8886 -563.19563 -5418.8887 -557.88477 C -5424.6623 -556.54001 -5427.0757 -550.0934 -5424.7285 -544.9668 L -5424.7285 -433.375 C -5434.3209 -431.70378 -5447.1623 -428.89384 -5454.4785 -437.3418 C -5461.4383 -448.08594 -5455.1883 -461.27231 -5455.9102 -472.92188 C -5460.2513 -501.13007 -5451.5524 -530.39222 -5459.6523 -558.04102 C -5478.1352 -558.93912 -5497.2151 -563.22472 -5515.3086 -557.86719 C -5521.054 -556.52 -5523.4393 -550.06432 -5521.1016 -544.9668 L -5521.1016 -433.375 C -5530.693 -431.70364 -5543.5347 -428.89397 -5550.8496 -437.3418 C -5557.8111 -448.08563 -5551.559 -461.27222 -5552.2812 -472.92188 C -5556.629 -501.14224 -5547.9172 -530.3013 -5556.0234 -558.04102 C -5574.5487 -558.9457 -5593.6761 -563.21494 -5611.6875 -557.86719 C -5617.47 -556.52719 -5619.7735 -550.05439 -5617.4824 -544.9668 L -5617.4824 -433.375 C -5627.072 -431.70372 -5639.9134 -428.8937 -5647.2246 -437.34375 C -5654.1808 -448.09125 -5647.9332 -461.26758 -5648.6523 -472.92188 C -5652.9876 -501.12495 -5644.3082 -530.55987 -5652.3945 -558.04102 C -5670.92 -558.92817 -5690.0525 -563.2385 -5708.0586 -557.86719 C -5713.8273 -556.51591 -5716.1829 -550.06926 -5713.8535 -544.9668 L -5713.8535 -433.375 C -5723.447 -431.70345 -5736.2946 -428.89239 -5743.6074 -437.34766 C -5750.8453 -448.61121 -5743.7759 -462.34274 -5745.1465 -474.59961 C -5749.2185 -502.25972 -5740.7498 -530.84865 -5748.7754 -558.04102 C -5767.2396 -558.91526 -5786.3278 -563.25055 -5804.4023 -557.87891 C -5810.1505 -556.53135 -5812.5909 -550.08835 -5810.2266 -544.9668 L -5810.2266 -433.375 C -5819.8184 -431.70316 -5832.6589 -428.89439 -5839.9746 -437.3418 C -5846.9348 -448.08596 -5840.6844 -461.27225 -5841.4062 -472.92188 C -5845.7581 -501.13689 -5837.0352 -530.21674 -5845.1484 -558.04102 C -5863.6631 -558.94638 -5882.7774 -563.20732 -5900.7812 -557.87891 C -5906.5792 -556.55087 -5908.9024 -550.06458 -5906.6074 -544.9668 L -5906.6074 -433.375 C -5916.197 -431.70373 -5929.0384 -428.8937 -5936.3496 -437.34375 C -5943.5903 -448.59742 -5936.5237 -462.32389 -5937.8887 -474.57227 C -5941.9638 -502.23917 -5933.4915 -530.85425 -5941.5195 -558.04102 C -5960.0448 -558.94568 -5979.1722 -563.21497 -5997.1836 -557.86719 C -6002.9811 -556.53039 -6005.2472 -550.04838 -6002.9785 -544.9668 L -6002.9785 -433.375 C -6012.572 -431.70324 -6025.4196 -428.89267 -6032.7324 -437.34766 C -6040.1289 -448.86725 -6032.5825 -462.91534 -6034.373 -475.41797 C -6038.1796 -502.79595 -6029.9632 -531.25193 -6037.9023 -558.04688 C -6069.3387 -560.13852 -6101.0313 -561.5618 -6132.4062 -557.54102 C -6137.9266 -484.79731 -6133.3035 -411.515 -6134.625 -338.57227 C -6132.0944 -326.36712 -6139.6959 -312.9171 -6132.709 -301.66797 C -6125.1263 -293.86883 -6112.9017 -298.63549 -6103.4551 -297.63477 L -3633.5156 -297.63477 C -3622.2967 -302.96933 -3622.4377 -317.00693 -3624.4336 -327.33789 C -3626.0863 -336.28471 -3626.7012 -345.51192 -3624.9121 -354.41211 C -3626.1979 -421.75045 -3622.149 -489.19728 -3626.8652 -556.42578 C -3638.7121 -559.41541 -3650.9824 -560.87605 -3663.1992 -560.83789 z "
               style="fill:#ffffff;fill-opacity:1;fill-rule:evenodd;stroke:#9955ff;stroke-width:12.46683121;stroke-linecap:round;stroke-linejoin:miter;stroke-miterlimit:4;stroke-dasharray:none;stroke-opacity:1"
               id="path4968"
               d="m -3662.7676,-542.7793 c -2.8359,0.18806 -4.553,0.34955 -6.3808,0.50782 0.1381,3.77647 0.2185,8.38348 -0.1075,13.98242 v 94.91406 a 18.039005,18.039005 0 0 1 -14.9414,17.76953 c -4.4529,0.77595 -11.1174,2.29492 -19.3125,2.07227 -8.195,-0.22266 -19.4416,-3.08125 -27.166,-12.00196 a 18.039005,18.039005 0 0 1 -1.5019,-1.99804 c -6.6519,-10.26625 -6.6195,-21.4431 -5.8692,-29.03321 0.7483,-7.57025 1.7006,-13.00094 1.5703,-15.20898 -3.8413,-27.01156 0.5288,-50.29513 -1.0703,-69.28516 -10.454,-0.85431 -20.3348,-1.6221 -28.0898,-0.80664 V -433.375 a 18.039005,18.039005 0 0 1 -14.9395,17.76953 c -4.4519,0.77587 -11.1191,2.29527 -19.3144,2.07227 -8.1954,-0.223 -19.4442,-3.08317 -27.166,-12.00782 a 18.039005,18.039005 0 0 1 -1.5274,-2.04296 c -6.8707,-10.6786 -6.5723,-22.23849 -5.7363,-29.94532 0.836,-7.70683 1.6603,-13.06302 1.4394,-15.04492 l 0.082,0.63086 c -3.9851,-27.05249 0.4688,-50.26162 -1.1035,-69.11523 -10.4767,-0.85605 -20.3716,-1.62952 -28.1055,-0.81641 v 108.5 a 18.039005,18.039005 0 0 1 -14.9414,17.76953 c -4.4542,0.77618 -11.1224,2.29589 -19.3203,2.07227 -8.198,-0.22363 -19.4497,-3.08727 -27.1719,-12.01563 a 18.039005,18.039005 0 0 1 -1.5313,-2.04883 c -6.8645,-10.68298 -6.5645,-22.2415 -5.7285,-29.94922 0.836,-7.70771 1.6595,-13.06305 1.4375,-15.04882 l 0.08,0.61914 c -3.9693,-27.008 0.451,-50.29524 -1.1035,-69.08789 -10.4462,-0.8581 -20.3182,-1.63083 -28.0918,-0.8086 V -433.375 a 18.039005,18.039005 0 0 1 -14.9414,17.76953 c -4.4531,0.77584 -11.1193,2.29487 -19.3145,2.07227 -8.1951,-0.2226 -19.4411,-3.08018 -27.166,-12 a 18.039005,18.039005 0 0 1 -1.5058,-2.00391 c -6.6398,-10.25403 -6.6144,-21.41726 -5.8672,-29.00391 0.7451,-7.56554 1.6999,-12.996 1.5722,-15.2207 -3.8339,-26.99673 0.5162,-50.34822 -1.0703,-69.29883 -10.451,-0.85388 -20.3319,-1.62027 -28.0898,-0.80468 V -433.375 a 18.039005,18.039005 0 0 1 -14.9395,17.76953 c -4.4525,0.77613 -11.1191,2.29539 -19.3144,2.07227 -8.1954,-0.22312 -19.4442,-3.08374 -27.166,-12.00782 a 18.039005,18.039005 0 0 1 -1.5176,-2.02734 c -6.8927,-10.68923 -6.5817,-22.26478 -5.7422,-29.97266 0.8395,-7.70787 1.657,-13.06402 1.4375,-15.00586 l 0.078,0.60352 c -3.9645,-26.91987 0.4287,-50.02074 -1.0762,-68.82422 -11.968,-0.93665 -22.2148,-2.14658 -30.8203,-1.27539 V -433.375 a 18.039005,18.039005 0 0 1 -14.9394,17.76953 c -4.452,0.77592 -11.1192,2.29529 -19.3145,2.07227 -8.1953,-0.22303 -19.4441,-3.08337 -27.166,-12.00782 a 18.039005,18.039005 0 0 1 -1.5293,-2.04492 c -6.8695,-10.67849 -6.5702,-22.23671 -5.7344,-29.94336 0.8359,-7.70664 1.6604,-13.06248 1.4395,-15.04492 l 0.082,0.63086 c -3.9852,-27.05255 0.4688,-50.26166 -1.1035,-69.11523 -10.4766,-0.85605 -20.3715,-1.62952 -28.1055,-0.81641 v 108.5 a 18.039005,18.039005 0 0 1 -14.9414,17.76953 c -4.4541,0.77617 -11.1224,2.2959 -19.3203,2.07227 -8.1979,-0.22363 -19.4496,-3.08731 -27.1719,-12.01563 a 18.039005,18.039005 0 0 1 -1.4921,-1.98828 c -6.6539,-10.26475 -6.6159,-21.43613 -5.8653,-29.02148 0.7485,-7.56412 1.6987,-12.99254 1.5703,-15.17774 -3.83,-26.9809 0.493,-50.42882 -1.0761,-69.33008 -10.431,-0.85709 -20.2915,-1.62621 -28.0743,-0.80273 V -433.375 a 18.039005,18.039005 0 0 1 -14.9414,17.76953 c -4.453,0.77583 -11.1193,2.29487 -19.3144,2.07227 -8.1952,-0.2226 -19.4412,-3.0803 -27.166,-12 a 18.039005,18.039005 0 0 1 -1.5059,-2.00586 c -6.6395,-10.254 -6.6144,-21.41533 -5.8672,-29.00196 0.7445,-7.55887 1.696,-12.98435 1.5703,-15.21289 -3.8339,-26.99521 0.5167,-50.35355 -1.0683,-69.30664 -10.4511,-0.85385 -20.3318,-1.62023 -28.0899,-0.80468 V -433.375 a 18.039005,18.039005 0 0 1 -14.9394,17.76953 c -4.4528,0.77624 -11.1191,2.29543 -19.3145,2.07227 -8.1953,-0.22317 -19.4442,-3.08381 -27.166,-12.00782 a 18.039005,18.039005 0 0 1 -1.5293,-2.04492 c -6.8692,-10.67868 -6.5702,-22.23698 -5.7344,-29.94336 0.8359,-7.70638 1.6605,-13.06294 1.4395,-15.04492 l 0.08,0.62891 c -3.984,-27.05893 0.4732,-50.25805 -1.1016,-69.11524 -10.4589,-0.85469 -20.3453,-1.6207 -28.1055,-0.80468 V -433.375 a 18.039005,18.039005 0 0 1 -14.9609,17.77344 c -4.3888,0.75974 -10.9057,2.23905 -18.9219,2.07812 -8.0161,-0.16092 -18.9178,-2.72375 -26.7793,-11.1289 a 18.039005,18.039005 0 0 1 -1.5312,-1.875 c -6.9984,-9.85265 -7.3582,-21.02888 -6.7168,-28.64258 0.6312,-7.49228 1.6653,-12.91833 1.6523,-15.3086 -3.7269,-27.32916 0.6502,-51.27357 -1.0195,-70.6289 -11.019,-0.71357 -20.7546,-1.61035 -28.0938,-0.83789 V -433.375 a 18.039005,18.039005 0 0 1 -14.9414,17.76953 c -4.4539,0.7761 -11.1223,2.29585 -19.3203,2.07227 -8.1979,-0.22359 -19.4496,-3.08736 -27.1718,-12.01563 a 18.039005,18.039005 0 0 1 -1.5313,-2.04883 c -6.8645,-10.683 -6.5645,-22.24152 -5.7285,-29.94922 0.836,-7.70769 1.6595,-13.06305 1.4375,-15.04882 l 0.08,0.61914 c -3.9695,-27.00752 0.4502,-50.29142 -1.1036,-69.08399 -10.4566,-0.85426 -20.342,-1.6206 -28.1035,-0.80468 V -433.375 a 18.039005,18.039005 0 0 1 -14.9394,17.76953 c -4.4528,0.77624 -11.1191,2.29543 -19.3145,2.07227 -8.1953,-0.22317 -19.4441,-3.08391 -27.166,-12.00782 a 18.039005,18.039005 0 0 1 -1.4922,-1.98632 c -6.6594,-10.26635 -6.6187,-21.44263 -5.8672,-29.0293 0.7498,-7.56939 1.7,-13.00354 1.5704,-15.18359 -3.8395,-27.00709 0.5131,-50.36619 -1.0743,-69.32227 -10.4531,-0.85426 -20.3333,-1.6201 -28.0879,-0.80469 V -433.375 a 18.039005,18.039005 0 0 1 -14.9609,17.77344 c -4.389,0.75985 -10.9057,2.23908 -18.9219,2.07812 -8.0161,-0.16096 -18.9178,-2.72393 -26.7793,-11.1289 a 18.039005,18.039005 0 0 1 -1.539,-1.88672 c -6.984,-9.84764 -7.3507,-21.013 -6.711,-28.62696 0.6291,-7.48706 1.666,-12.90705 1.6563,-15.32226 -3.7501,-27.35774 0.6278,-51.0997 -1.0567,-70.57813 -10.4271,-0.8565 -20.2855,-1.62636 -28.0586,-0.80273 V -433.375 a 18.039005,18.039005 0 0 1 -14.9414,17.76953 c -4.4541,0.77617 -11.1224,2.2959 -19.3203,2.07227 -8.1979,-0.22363 -19.4496,-3.08731 -27.1718,-12.01563 a 18.039005,18.039005 0 0 1 -1.4922,-1.98828 c -6.6539,-10.26472 -6.6159,-21.43608 -5.8653,-29.02148 0.7484,-7.56285 1.6983,-12.98968 1.5703,-15.17579 -3.8302,-26.97887 0.4935,-50.42553 -1.0742,-69.32617 -10.4603,-0.85495 -20.3434,-1.6255 -28.0859,-0.8125 V -433.375 a 18.039005,18.039005 0 0 1 -14.9395,17.76953 c -4.4526,0.77597 -11.122,2.29615 -19.3203,2.07227 -8.1983,-0.22389 -19.4521,-3.09067 -27.1719,-12.02344 a 18.039005,18.039005 0 0 1 -1.5,-1.99805 c -6.6403,-10.26752 -6.601,-21.43505 -5.8496,-29.02148 0.7495,-7.56658 1.7003,-12.99459 1.5704,-15.19922 -3.8404,-26.99269 0.5117,-50.34414 -1.0723,-69.28516 -10.451,-0.85388 -20.3319,-1.62028 -28.0899,-0.80468 V -433.375 a 18.039005,18.039005 0 0 1 -14.9414,17.76953 c -4.4529,0.77594 -11.1174,2.29491 -19.3125,2.07227 -8.195,-0.22265 -19.4436,-3.08125 -27.1679,-12.00196 a 18.039005,18.039005 0 0 1 -1.5,-1.99804 c -6.6519,-10.26625 -6.6195,-21.4431 -5.8692,-29.03321 0.7483,-7.57025 1.7006,-13.00094 1.5703,-15.20898 -3.8418,-27.01157 0.5284,-50.29593 -1.0703,-69.28516 -10.4543,-0.85413 -20.337,-1.6206 -28.0898,-0.80468 V -433.375 a 18.039005,18.039005 0 0 1 -14.9395,17.76953 c -4.4519,0.77587 -11.1191,2.29527 -19.3144,2.07227 -8.1954,-0.223 -19.4442,-3.08317 -27.166,-12.00782 a 18.039005,18.039005 0 0 1 -1.5274,-2.04296 c -6.8707,-10.6786 -6.5723,-22.23849 -5.7363,-29.94532 0.836,-7.70683 1.6603,-13.06302 1.4394,-15.04492 l 0.082,0.63086 c -3.9857,-27.05285 0.4686,-50.26173 -1.1035,-69.11523 -10.4767,-0.85605 -20.3716,-1.62952 -28.1055,-0.81641 v 108.5 a 18.039005,18.039005 0 0 1 -14.9395,17.76953 c -4.4531,0.77614 -11.1221,2.29625 -19.3203,2.07227 -8.1982,-0.22399 -19.4521,-3.0896 -27.1719,-12.02149 a 18.039005,18.039005 0 0 1 -1.5,-2.00195 c -6.6379,-10.26631 -6.6005,-21.43182 -5.8496,-29.01758 0.749,-7.56592 1.7005,-12.99366 1.5704,-15.20312 -3.8359,-26.9801 0.5052,-50.35272 -1.0743,-69.28516 -10.4487,-0.85378 -20.3272,-1.61969 -28.0859,-0.80469 V -433.375 a 18.039005,18.039005 0 0 1 -14.9414,17.76953 c -4.453,0.77582 -11.1193,2.29486 -19.3145,2.07227 -8.1951,-0.2226 -19.4411,-3.08018 -27.166,-12 a 18.039005,18.039005 0 0 1 -1.5039,-2.00196 c -6.6499,-10.26582 -6.6151,-21.44129 -5.8652,-29.03125 0.7475,-7.56617 1.6973,-12.99334 1.5683,-15.20507 -3.8369,-26.99681 0.5142,-50.34685 -1.0722,-69.29297 -10.4341,-0.85705 -20.2985,-1.62725 -28.0782,-0.80274 V -433.375 a 18.039005,18.039005 0 0 1 -14.9414,17.76953 c -4.4529,0.77595 -11.1174,2.29492 -19.3125,2.07227 -8.195,-0.22266 -19.4416,-3.08125 -27.166,-12.00196 a 18.039005,18.039005 0 0 1 -1.5019,-1.99804 c -6.652,-10.26614 -6.6195,-21.44293 -5.8692,-29.03321 0.7484,-7.57043 1.7005,-13.00257 1.5703,-15.21093 -3.8417,-27.01096 0.5283,-50.29443 -1.0703,-69.28321 -10.4544,-0.85413 -20.337,-1.62059 -28.0898,-0.80468 V -433.375 a 18.039005,18.039005 0 0 1 -14.9395,17.76953 c -4.4519,0.77588 -11.1191,2.29527 -19.3144,2.07227 -8.1954,-0.223 -19.4442,-3.08317 -27.166,-12.00782 a 18.039005,18.039005 0 0 1 -1.502,-2.00195 c -6.6434,-10.26428 -6.6096,-21.43488 -5.8594,-29.02344 0.7479,-7.5648 1.6992,-12.99033 1.5704,-15.20898 -3.8288,-26.96947 0.484,-50.42553 -1.0743,-69.28516 -10.463,-0.85483 -20.3492,-1.62401 -28.0859,-0.81054 V -433.375 a 18.039005,18.039005 0 0 1 -14.9414,17.76953 c -4.4537,0.776 -11.1224,2.2958 -19.3203,2.07227 -8.198,-0.22353 -19.4497,-3.08698 -27.1719,-12.01563 a 18.039005,18.039005 0 0 1 -1.5312,-2.04883 c -6.8649,-10.68308 -6.5646,-22.24148 -5.7286,-29.94922 0.8361,-7.70773 1.6595,-13.06343 1.4375,-15.04882 l 0.08,0.62304 c -3.9816,-27.04636 0.4725,-50.23599 -1.1016,-69.08984 -10.4549,-0.85868 -20.3318,-1.63521 -28.0957,-0.81445 V -433.375 a 18.039005,18.039005 0 0 1 -14.9394,17.76953 c -4.4539,0.77631 -11.1214,2.2951 -19.3164,2.07227 -8.195,-0.22283 -19.4397,-3.08072 -27.1641,-12 a 18.039005,18.039005 0 0 1 -1.5039,-2.00196 c -6.6503,-10.26585 -6.6172,-21.44119 -5.8672,-29.03125 0.7478,-7.56758 1.6997,-12.99612 1.5703,-15.20703 -3.8472,-27.01975 0.5432,-50.25404 -1.0683,-69.28711 -10.4548,-0.85437 -20.3363,-1.62214 -28.0918,-0.80664 V -433.375 a 18.039005,18.039005 0 0 1 -14.9395,17.76953 c -4.4519,0.77587 -11.1191,2.29527 -19.3144,2.07227 -8.1954,-0.223 -19.4442,-3.08317 -27.166,-12.00782 a 18.039005,18.039005 0 0 1 -1.5274,-2.04296 c -6.8707,-10.6786 -6.5723,-22.23849 -5.7363,-29.94532 0.836,-7.70683 1.6603,-13.06302 1.4394,-15.04492 l 0.082,0.63086 c -3.9847,-27.05311 0.4675,-50.2631 -1.1055,-69.11719 -10.46,-0.85454 -20.3474,-1.62094 -28.1035,-0.80468 V -433.375 a 18.039005,18.039005 0 0 1 -14.9414,17.76953 c -4.4542,0.77618 -11.1224,2.29589 -19.3203,2.07227 -8.198,-0.22363 -19.4497,-3.08727 -27.1719,-12.01563 a 18.039005,18.039005 0 0 1 -1.5352,-2.05273 c -7.0061,-10.91165 -6.5471,-22.68487 -5.6679,-30.44336 0.8791,-7.75849 1.6063,-13.02369 1.3496,-14.81641 a 18.039005,18.039005 0 0 1 -0.01,-0.0723 c -3.6873,-26.52011 0.5359,-49.40425 -0.9609,-67.92969 -21.1138,-1.18447 -41.8689,-1.57614 -62.125,-0.0781 -3.7487,65.93099 -0.075,133.37843 -1.2637,201.69336 1.3243,9.38968 -0.2884,16.74666 -0.8262,21.50977 -0.1441,1.27648 -0.1006,1.65342 -0.1464,2.4707 3.0826,-0.23513 7.6286,-0.87635 14.1777,-0.4043 h 2461.7558 c 0.1635,-2.08863 0.081,-5.15511 -0.5156,-8.24414 a 18.039005,18.039005 0 0 1 -0.027,-0.14453 c -1.7714,-9.58935 -2.5867,-20.21922 -0.7813,-31.3164 -1.1425,-63.08407 2.0573,-125.16823 -1.1543,-186.03125 -6.1727,-0.89127 -12.4189,-1.37267 -18.6621,-1.3711 z"
               transform="translate(1242.8401,-104.71193)"
               clip-path="url(#clipPath5144)" />
            <g
               transform="matrix(3.1137544,0,0,3.1137544,-5247.2735,-4934.4673)"
               id="g4017">
              <g
                 style="font-style:normal;font-variant:normal;font-weight:normal;font-stretch:normal;letter-spacing:normal;word-spacing:normal;text-anchor:start;fill:none;stroke:#000000;stroke-linecap:butt;stroke-linejoin:miter;stroke-miterlimit:10.43299961;stroke-dasharray:none;stroke-dashoffset:0;stroke-opacity:1"
                 id="g4019"
                 transform="matrix(1.1070674,0,0,-1.1070674,222.39589,1708.2604)"
                 xml:space="preserve"
                 stroke-miterlimit="10.433"
                 font-style="normal"
                 font-variant="normal"
                 font-weight="normal"
                 font-stretch="normal"
                 font-size-adjust="none"
                 letter-spacing="normal"
                 word-spacing="normal"><path
                   style="fill:#000000;stroke-width:0"
                   inkscape:connector-curvature="0"
                   d="m 486.8,434.54 0.23,0.36 0.23,0.33 0.22,0.31 0.22,0.29 0.22,0.28 0.22,0.25 0.22,0.24 0.22,0.22 0.21,0.2 0.21,0.19 0.21,0.17 0.2,0.16 0.21,0.14 0.2,0.13 0.21,0.12 0.19,0.11 0.2,0.09 0.2,0.09 0.19,0.07 0.2,0.07 0.19,0.06 0.19,0.05 0.18,0.04 0.19,0.03 0.18,0.03 0.19,0.03 0.36,0.04 0.35,0.02 0.35,0.02 c 0.6,0.05 0.64,0.89 0.64,0.96 0,0.39 -0.25,0.59 -0.64,0.59 -1.3,0 -2.75,-0.16 -4.09,-0.16 -1.64,0 -3.35,0.16 -4.94,0.16 -0.3,0 -0.94,0 -0.94,-0.95 0,-0.55 0.46,-0.6 0.8,-0.6 1.34,-0.09 2.3,-0.59 2.3,-1.64 0,-0.75 -0.75,-1.84 -0.75,-1.89 l -15.3,-24.31 -3.39,26.34 c 0,0.85 1.14,1.5 3.44,1.5 0.7,0 1.25,0 1.25,1 0,0.44 -0.41,0.55 -0.71,0.55 -1.98,0 -4.14,-0.16 -6.17,-0.16 -0.9,0 -1.84,0.05 -2.75,0.05 -0.89,0 -1.84,0.11 -2.69,0.11 -0.34,0 -0.93,0 -0.93,-0.95 0,-0.6 0.43,-0.6 1.23,-0.6 2.8,0 2.84,-0.45 3,-1.68 l 3.92,-30.75 c 0.16,-1 0.36,-1.14 1,-1.14 0.8,0 1,0.25 1.41,0.89 z"
                   id="path4021" /><path
                   style="fill:#000000;stroke-width:0"
                   inkscape:connector-curvature="0"
                   d="m 504.45,421.9 v 0.01 0 h 0.01 v 0.01 0 0.01 l 0.01,0.01 v 0 0.01 0.01 l 0.01,0.01 0.01,0.02 v 0.02 l 0.01,0.02 v 0.02 l 0.01,0.02 v 0.02 l 0.01,0.03 0.01,0.02 0.01,0.05 v 0.02 l 0.01,0.02 v 0.03 l 0.01,0.02 v 0.02 l 0.01,0.02 v 0.02 0.02 l 0.01,0.02 v 0.01 0.01 0.01 0 l 0.01,0.01 v 0 0.01 0 0.01 0 0 0.01 0 c 0,0.19 -0.14,0.5 -0.55,0.5 -0.7,0 -3.59,-0.28 -4.47,-0.36 -0.28,-0.03 -0.76,-0.06 -0.76,-0.8 0,-0.48 0.48,-0.48 0.9,-0.48 1.68,0 1.68,-0.25 1.68,-0.53 0,-0.24 -0.07,-0.46 -0.14,-0.77 l -1.99,-7.94 c -0.73,1.14 -1.92,2.05 -3.59,2.05 v -0.97 c 2.44,0 3.11,-2.64 3.11,-3.03 0,-0.14 -0.08,-0.39 -0.11,-0.48 l -1.64,-6.52 c -0.24,-0.98 -1,-1.67 -1.77,-2.34 -0.31,-0.27 -1.72,-1.39 -3.22,-1.39 -1.28,0 -2.53,0.9 -2.53,3.37 0,1.86 1,5.69 1.81,7.08 1.6,2.8 3.38,3.31 4.35,3.31 v 0.97 c -4.46,0 -8.99,-4.91 -8.99,-9.92 0,-3.38 2.27,-5.78 5.27,-5.78 1.87,0 3.55,1.08 4.94,2.44 0.67,-2.1 2.68,-2.44 3.59,-2.44 1.25,0 2.13,0.76 2.75,1.84 0.77,1.36 1.22,3.35 1.22,3.49 0,0.45 -0.45,0.45 -0.55,0.45 -0.5,0 -0.53,-0.14 -0.76,-1.08 -0.43,-1.67 -1.1,-3.73 -2.55,-3.73 -0.91,0 -1.16,0.76 -1.16,1.7 0,0.67 0.08,0.98 0.18,1.44 z"
                   id="path4023" /></g>            </g>
            <g
               transform="matrix(3.1137544,0,0,3.1137544,-4518.4398,-4394.7587)"
               id="g4931">
              <g
                 style="font-style:normal;font-variant:normal;font-weight:normal;font-stretch:normal;letter-spacing:normal;word-spacing:normal;text-anchor:start;fill:none;stroke:#000000;stroke-linecap:butt;stroke-linejoin:miter;stroke-miterlimit:10.43299961;stroke-dasharray:none;stroke-dashoffset:0;stroke-opacity:1"
                 word-spacing="normal"
                 letter-spacing="normal"
                 font-size-adjust="none"
                 font-stretch="normal"
                 font-weight="normal"
                 font-variant="normal"
                 font-style="normal"
                 stroke-miterlimit="10.433"
                 xml:space="preserve"
                 transform="matrix(1.1070674,0,0,-1.1070674,-193.7368,1528.7962)"
                 id="g4933"><path
                   style="fill:#000000;stroke-width:0"
                   inkscape:connector-curvature="0"
                   id="path4935"
                   d="m 475.89,417.65 h 13.91 c 0.69,0 1.64,0 1.64,1 0,1 -0.95,1 -1.64,1 h -13.91 v 13.96 c 0,0.68 0,1.64 -1,1.64 -0.98,0 -0.98,-0.96 -0.98,-1.64 v -13.96 h -13.95 c -0.71,0 -1.64,0 -1.64,-1 0,-1 0.93,-1 1.64,-1 h 13.95 v -13.94 c 0,-0.7 0,-1.65 0.98,-1.65 1,0 1,0.95 1,1.65 z" /><path
                   style="fill:#000000;stroke-width:0"
                   inkscape:connector-curvature="0"
                   id="path4937"
                   d="m 516.79,427.67 v 0.02 0.02 0.02 0.02 l -0.01,0.02 v 0.02 l -0.01,0.02 v 0.02 l -0.01,0.02 -0.01,0.02 -0.01,0.02 -0.01,0.03 -0.01,0.02 -0.01,0.02 -0.02,0.02 -0.01,0.01 -0.02,0.02 -0.01,0.02 -0.02,0.02 -0.02,0.01 -0.02,0.02 -0.02,0.01 -0.02,0.02 -0.03,0.01 -0.02,0.01 -0.03,0.01 -0.02,0.01 h -0.03 l -0.03,0.01 h -0.03 l -0.03,0.01 h -0.02 -0.02 c -0.54,0 -2.53,-1.99 -3.37,-3.44 -1.11,2.69 -3.05,3.48 -4.64,3.48 v -1.09 c 3.23,0 3.94,-4.03 3.94,-4.37 0,-0.32 -2.74,-11.22 -2.9,-11.43 -0.75,-1.39 -3.53,-4.57 -6.32,-4.57 v 0 c -2.99,0 -3.19,3.84 -3.19,4.68 0,2.39 1.44,7.82 2.3,9.91 1.53,3.69 4.12,5.78 6.17,5.78 v 1.09 c -5.88,0 -12,-7.37 -12,-14.59 0,-4.87 2.93,-7.97 6.56,-7.97 2.16,0 4.09,1.19 5.89,2.99 -0.45,-1.74 -2.09,-8.47 -2.25,-8.93 -0.39,-1.39 -0.8,-1.59 -3.58,-1.64 -0.65,0 -1.15,0 -1.15,-1 0,-0.04 0,-0.54 0.65,-0.54 1.6,0 3.33,0.15 4.99,0.15 1.68,0 3.48,-0.15 5.12,-0.15 0.25,0 0.89,0 0.89,1 0,0.54 -0.48,0.54 -1.28,0.54 -2.41,0 -2.41,0.36 -2.41,0.8 0,0.36 0.11,0.66 0.21,1.09 z" /></g>            </g>
            <g
               transform="matrix(3.1137544,0,0,3.1137544,-4494.8751,-3716.8719)"
               id="g5273">
              <g
                 style="font-style:normal;font-variant:normal;font-weight:normal;font-stretch:normal;letter-spacing:normal;word-spacing:normal;text-anchor:start;fill:none;stroke:#000000;stroke-linecap:butt;stroke-linejoin:miter;stroke-miterlimit:10.43299961;stroke-dasharray:none;stroke-dashoffset:0;stroke-opacity:1"
                 id="g5275"
                 transform="matrix(1.1070674,0,0,-1.1070674,-193.7368,1528.7962)"
                 xml:space="preserve"
                 stroke-miterlimit="10.433"
                 font-style="normal"
                 font-variant="normal"
                 font-weight="normal"
                 font-stretch="normal"
                 font-size-adjust="none"
                 letter-spacing="normal"
                 word-spacing="normal"><path
                   style="fill:#000000;stroke-width:0"
                   inkscape:connector-curvature="0"
                   d="m 488.35,417.65 h 0.16 0.16 l 0.15,0.01 h 0.08 l 0.08,0.01 h 0.07 l 0.08,0.01 0.07,0.01 0.07,0.01 0.07,0.02 0.07,0.02 0.07,0.02 0.06,0.02 0.06,0.02 0.06,0.03 0.05,0.03 0.06,0.04 0.05,0.03 0.04,0.05 0.04,0.04 0.04,0.05 0.02,0.03 0.02,0.03 0.01,0.03 0.02,0.03 0.01,0.03 0.02,0.03 0.01,0.04 0.01,0.03 0.01,0.04 v 0.04 l 0.01,0.04 0.01,0.04 v 0.04 l 0.01,0.04 v 0.05 0.04 c 0,1 -0.91,1 -1.75,1 h -26.96 c -0.84,0 -1.73,0 -1.73,-1 0,-1 0.89,-1 1.73,-1 z"
                   id="path5277" /><path
                   style="fill:#000000;stroke-width:0"
                   inkscape:connector-curvature="0"
                   d="m 520.09,424.78 h 0.06 0.07 0.08 0.08 0.08 l 0.09,0.01 h 0.1 l 0.09,0.01 0.1,0.01 0.1,0.02 0.1,0.02 0.1,0.02 0.1,0.02 0.11,0.03 0.1,0.03 0.1,0.04 0.1,0.04 0.09,0.05 0.1,0.05 0.08,0.06 0.09,0.07 0.08,0.07 0.04,0.04 0.04,0.04 0.03,0.04 0.04,0.05 0.03,0.04 0.03,0.05 0.03,0.05 0.03,0.05 0.02,0.05 0.03,0.06 0.02,0.06 0.02,0.06 0.02,0.06 0.01,0.06 0.02,0.07 0.01,0.07 0.01,0.07 v 0.08 l 0.01,0.07 v 0.08 c 0,1.19 -1.05,1.19 -1.94,1.19 h -11.36 c -7.53,0 -13.06,-8.22 -13.06,-14.14 0,-4.39 2.94,-7.88 7.47,-7.88 l 0.06,1.1 c -2.45,0 -4.44,1.79 -4.44,5.37 0,1.5 0.6,5.59 2.35,8.53 2.09,3.44 5.07,4.13 6.76,4.13 4.19,0 4.6,-3.28 4.6,-4.83 0,-2.34 -1.01,-6.42 -2.69,-8.97 -1.96,-2.94 -4.64,-4.23 -6.58,-4.23 v 0 l -0.06,-1.1 c 5.89,0 12.51,6.03 12.51,13.71 0,0.84 0,3.23 -1.55,5.42 z"
                   id="path5279" /></g>            </g>
            <g
               id="g5933"
               transform="matrix(3.1137544,0,0,3.1137544,-4044.4691,-3707.1295)"
               style="fill:#9955ff;fill-opacity:1">
              <g
                 id="g5935"
                 transform="matrix(1.1070674,0,0,-1.1070674,-193.7368,1528.7962)"
                 xml:space="preserve"
                 stroke-miterlimit="10.433"
                 font-style="normal"
                 font-variant="normal"
                 font-weight="normal"
                 font-stretch="normal"
                 font-size-adjust="none"
                 letter-spacing="normal"
                 word-spacing="normal"
                 style="font-style:normal;font-variant:normal;font-weight:normal;font-stretch:normal;letter-spacing:normal;word-spacing:normal;text-anchor:start;fill:#9955ff;fill-opacity:1;stroke:#000000;stroke-linecap:butt;stroke-linejoin:miter;stroke-miterlimit:10.43299961;stroke-dasharray:none;stroke-dashoffset:0;stroke-opacity:1"><path
                   d="m 466.83,421.95 -0.15,1.28 v 13.45 c 0,1.66 0.11,2 2.43,2 h 4.44 c 7.92,0 7.92,-5.28 7.92,-7.72 0,-2.34 0,-7.73 -7.92,-7.73 h -6.87 l 0.15,-1.28 h 8.42 c 5.97,0 11.36,4.03 11.36,9.01 0,4.88 -4.93,9.27 -11.76,9.27 h -17.58 v -1.55 h 1.19 c 3.84,0 3.93,-0.54 3.93,-2.34 v -26.25 c 0,-1.8 -0.09,-2.34 -3.93,-2.34 h -1.19 v -1.55 c 1.73,0.16 5.42,0.16 7.31,0.16 1.89,0 5.64,0 7.38,-0.16 v 1.55 h -1.19 c -3.84,0 -3.94,0.54 -3.94,2.34 z"
                   id="path5937"
                   inkscape:connector-curvature="0"
                   style="fill:#9955ff;fill-opacity:1;stroke-width:0" /><path
                   d="m 501.48,439.14 -0.02,0.05 -0.02,0.05 -0.02,0.04 -0.02,0.05 -0.04,0.09 -0.04,0.08 -0.03,0.07 -0.04,0.07 -0.03,0.07 -0.04,0.06 -0.03,0.05 -0.04,0.05 -0.04,0.05 -0.03,0.04 -0.04,0.04 -0.04,0.04 -0.04,0.03 -0.05,0.02 -0.04,0.03 -0.05,0.02 -0.05,0.02 -0.05,0.01 -0.06,0.02 -0.06,0.01 -0.06,0.01 h -0.07 l -0.07,0.01 h -0.07 l -0.08,0.01 h -0.08 -0.09 -0.1 -0.09 -0.11 -8.42 v -1.55 h 1.2 c 3.83,0 3.93,-0.54 3.93,-2.34 v -24.91 c 0,-1.34 0,-3.68 -5.13,-3.68 v -1.55 c 1.75,0.05 4.19,0.16 5.83,0.16 1.64,0 4.09,-0.11 5.83,-0.16 v 1.55 c -5.13,0 -5.13,2.34 -5.13,3.68 v 26.85 h 0.05 l 12,-30.99 c 0.25,-0.64 0.5,-1.09 1,-1.09 0.55,0 0.7,0.41 0.89,0.95 l 12.26,31.53 h 0.05 v -28.59 c 0,-1.8 -0.09,-2.34 -3.94,-2.34 h -1.18 v -1.55 c 1.84,0.16 5.22,0.16 7.17,0.16 1.94,0 5.28,0 7.12,-0.16 v 1.55 h -1.2 c -3.83,0 -3.94,0.54 -3.94,2.34 v 26.25 c 0,1.8 0.11,2.34 3.94,2.34 h 1.2 v 1.55 h -8.42 c -1.3,0 -1.3,-0.05 -1.64,-0.95 l -10.92,-28.05 z"
                   id="path5939"
                   inkscape:connector-curvature="0"
                   style="fill:#9955ff;fill-opacity:1;stroke-width:0" /><path
                   d="m 547.2,439.14 -0.03,0.05 -0.02,0.05 -0.01,0.04 -0.02,0.05 -0.04,0.09 -0.04,0.08 -0.03,0.07 -0.04,0.07 -0.03,0.07 -0.04,0.06 -0.04,0.05 -0.03,0.05 -0.04,0.05 -0.03,0.04 -0.04,0.04 -0.04,0.04 -0.04,0.03 -0.05,0.02 -0.04,0.03 -0.05,0.02 -0.05,0.02 -0.05,0.01 -0.06,0.02 -0.06,0.01 -0.06,0.01 h -0.07 l -0.07,0.01 h -0.07 l -0.08,0.01 h -0.08 -0.09 -0.1 -0.09 -0.11 -8.42 v -1.55 h 1.2 c 3.83,0 3.92,-0.54 3.92,-2.34 v -24.91 c 0,-1.34 0,-3.68 -5.12,-3.68 v -1.55 c 1.75,0.05 4.19,0.16 5.83,0.16 1.64,0 4.09,-0.11 5.83,-0.16 v 1.55 c -5.13,0 -5.13,2.34 -5.13,3.68 v 26.85 h 0.05 l 12,-30.99 c 0.25,-0.64 0.5,-1.09 1,-1.09 0.54,0 0.7,0.41 0.89,0.95 l 12.26,31.53 h 0.05 v -28.59 c 0,-1.8 -0.09,-2.34 -3.94,-2.34 h -1.18 v -1.55 c 1.84,0.16 5.21,0.16 7.17,0.16 1.93,0 5.28,0 7.12,-0.16 v 1.55 h -1.2 c -3.83,0 -3.94,0.54 -3.94,2.34 v 26.25 c 0,1.8 0.11,2.34 3.94,2.34 h 1.2 v 1.55 h -8.42 c -1.3,0 -1.3,-0.05 -1.64,-0.95 l -10.92,-28.05 z"
                   id="path5941"
                   inkscape:connector-curvature="0"
                   style="fill:#9955ff;fill-opacity:1;stroke-width:0" /><path
                   d="m 600.74,440.87 -0.02,0.06 -0.02,0.06 -0.02,0.06 -0.03,0.05 -0.02,0.06 -0.02,0.05 -0.02,0.05 -0.02,0.04 -0.02,0.05 -0.02,0.04 -0.03,0.05 -0.02,0.04 -0.02,0.03 -0.03,0.04 -0.03,0.03 -0.02,0.04 -0.03,0.03 -0.03,0.03 -0.04,0.02 -0.03,0.03 -0.04,0.02 -0.04,0.02 -0.04,0.02 -0.05,0.02 -0.05,0.01 -0.05,0.01 -0.05,0.02 h -0.06 l -0.06,0.01 -0.07,0.01 h -0.07 -0.03 -0.04 c -0.8,0 -0.95,-0.3 -1.2,-1 l -10.31,-29.8 c -0.89,-2.53 -2.89,-3.28 -5.58,-3.32 v -1.55 c 1.14,0.05 3.28,0.16 5.08,0.16 1.54,0 4.14,-0.11 5.73,-0.16 v 1.55 c -2.48,0 -3.73,1.25 -3.73,2.53 0,0.15 0.04,0.65 0.09,0.75 l 2.3,6.53 0.54,1.55 5.58,16.18 5.63,-16.18 h -11.21 l -0.54,-1.55 h 12.29 l 2.64,-7.63 c 0.07,-0.2 0.16,-0.5 0.16,-0.68 0,-1.5 -2.8,-1.5 -4.14,-1.5 v -1.55 c 1.8,0.16 5.28,0.16 7.19,0.16 2.14,0 4.42,-0.07 6.51,-0.16 v 1.55 h -0.89 c -3,0 -3.69,0.34 -4.23,1.98 z"
                   id="path5943"
                   inkscape:connector-curvature="0"
                   style="fill:#9955ff;fill-opacity:1;stroke-width:0" /></g>            </g>
            <g
               id="g6277"
               transform="matrix(3.1137544,0,0,3.1137544,-4259.3264,-4947.6649)"
               style="fill:#2aff80;fill-opacity:1">
              <g
                 word-spacing="normal"
                 letter-spacing="normal"
                 font-size-adjust="none"
                 font-stretch="normal"
                 font-weight="normal"
                 font-variant="normal"
                 font-style="normal"
                 stroke-miterlimit="10.433"
                 xml:space="preserve"
                 transform="matrix(1.1070674,0,0,-1.1070674,-193.7368,1528.7962)"
                 id="g6279"
                 style="font-style:normal;font-variant:normal;font-weight:normal;font-stretch:normal;letter-spacing:normal;word-spacing:normal;text-anchor:start;fill:#2aff80;fill-opacity:1;stroke:#000000;stroke-linecap:butt;stroke-linejoin:miter;stroke-miterlimit:10.43299961;stroke-dasharray:none;stroke-dashoffset:0;stroke-opacity:1"><path
                   id="path6281"
                   d="m 466.83,421.95 -0.15,1.28 v 13.45 c 0,1.66 0.11,2 2.43,2 h 4.44 c 7.92,0 7.92,-5.28 7.92,-7.72 0,-2.34 0,-7.73 -7.92,-7.73 h -6.87 l 0.15,-1.28 h 8.42 c 5.97,0 11.36,4.03 11.36,9.01 0,4.88 -4.93,9.27 -11.76,9.27 h -17.58 v -1.55 h 1.19 c 3.84,0 3.93,-0.54 3.93,-2.34 v -26.25 c 0,-1.8 -0.09,-2.34 -3.93,-2.34 h -1.19 v -1.55 c 1.73,0.16 5.42,0.16 7.31,0.16 1.89,0 5.64,0 7.38,-0.16 v 1.55 h -1.19 c -3.84,0 -3.94,0.54 -3.94,2.34 z"
                   inkscape:connector-curvature="0"
                   style="fill:#2aff80;fill-opacity:1;stroke-width:0" /><path
                   id="path6283"
                   d="m 522.66,439.93 h -30.45 l -0.94,-11.22 h 1.25 c 0.69,8.04 1.44,9.68 8.96,9.68 0.9,0 2.2,0 2.7,-0.11 1.05,-0.19 1.05,-0.74 1.05,-1.89 v -26.25 c 0,-1.71 0,-2.39 -5.24,-2.39 h -2 v -1.55 c 2.05,0.16 7.13,0.16 9.42,0.16 2.3,0 7.43,0 9.47,-0.16 v 1.55 h -2 c -5.23,0 -5.23,0.68 -5.23,2.39 v 26.25 c 0,1 0,1.7 0.9,1.89 0.55,0.11 1.9,0.11 2.85,0.11 7.51,0 8.26,-1.64 8.95,-9.68 h 1.25 z"
                   inkscape:connector-curvature="0"
                   style="fill:#2aff80;fill-opacity:1;stroke-width:0" /><path
                   id="path6285"
                   d="m 554.48,440.07 h -27.36 v -1.54 h 1.2 c 3.83,0 3.94,-0.55 3.94,-2.33 v -26.11 c 0,-1.8 -0.11,-2.34 -3.94,-2.34 h -1.2 v -1.55 c 1.75,0.16 5.64,0.16 7.58,0.16 2.04,0 6.57,0 8.37,-0.16 v 1.55 h -1.66 c -4.73,0 -4.73,0.64 -4.73,2.39 v 12.25 h 4.3 c 4.78,0 5.28,-1.6 5.28,-5.83 h 1.23 v 13.2 h -1.23 c 0,-4.19 -0.5,-5.83 -5.28,-5.83 h -4.3 v 12.61 c 0,1.64 0.11,1.99 2.45,1.99 h 5.97 c 7.49,0 8.72,-2.78 9.52,-9.66 h 1.25 z"
                   inkscape:connector-curvature="0"
                   style="fill:#2aff80;fill-opacity:1;stroke-width:0" /><path
                   id="path6287"
                   d="m 564.78,410.09 v -0.16 l -0.01,-0.16 v -0.15 l -0.01,-0.15 v -0.13 l -0.02,-0.13 -0.02,-0.13 -0.02,-0.11 -0.03,-0.12 -0.04,-0.1 -0.04,-0.1 -0.05,-0.09 -0.06,-0.09 -0.07,-0.08 -0.08,-0.08 -0.09,-0.07 -0.1,-0.06 -0.11,-0.06 -0.06,-0.03 -0.06,-0.03 -0.07,-0.02 -0.07,-0.03 -0.08,-0.02 -0.07,-0.02 -0.09,-0.02 -0.08,-0.02 -0.09,-0.02 -0.09,-0.02 -0.1,-0.02 -0.1,-0.01 -0.1,-0.01 -0.11,-0.02 -0.12,-0.01 -0.12,-0.01 -0.12,-0.01 -0.12,-0.01 -0.14,-0.01 -0.13,-0.01 h -0.14 l -0.15,-0.01 h -0.15 l -0.15,-0.01 h -0.17 -0.16 -0.17 -0.18 -1.2 v -1.55 h 28.75 l 2.09,12.86 h -1.25 c -1.23,-7.67 -2.39,-11.31 -10.95,-11.31 h -6.63 c -2.34,0 -2.45,0.34 -2.45,1.98 v 13.31 h 4.48 c 4.85,0 5.39,-1.59 5.39,-5.83 h 1.24 v 13.21 h -1.24 c 0,-4.3 -0.54,-5.83 -5.39,-5.83 h -4.48 v 11.95 c 0,1.64 0.11,1.99 2.45,1.99 h 6.42 c 7.63,0 8.97,-2.74 9.77,-9.66 h 1.25 l -1.41,11.2 h -28.04 v -1.54 h 1.2 c 3.83,0 3.94,-0.55 3.94,-2.33 z"
                   inkscape:connector-curvature="0"
                   style="fill:#2aff80;fill-opacity:1;stroke-width:0" /><path
                   id="path6289"
                   d="m 611.31,423.23 0.02,-0.96 0.07,-0.94 0.12,-0.93 0.15,-0.91 0.2,-0.89 0.24,-0.87 0.28,-0.85 0.32,-0.83 0.36,-0.81 0.39,-0.78 0.43,-0.76 0.46,-0.74 0.49,-0.7 0.52,-0.68 0.56,-0.66 0.58,-0.62 0.61,-0.59 0.63,-0.56 0.66,-0.53 0.68,-0.5 0.71,-0.46 0.72,-0.43 0.75,-0.39 0.76,-0.35 0.78,-0.32 0.8,-0.28 0.81,-0.23 0.82,-0.2 0.84,-0.15 0.85,-0.11 0.85,-0.07 0.87,-0.02 c 8.12,0 13,6.92 13,12.7 0,0.5 0,0.84 -0.64,0.84 -0.55,0 -0.55,-0.29 -0.6,-0.79 -0.4,-7.13 -5.73,-11.21 -11.17,-11.21 -3.03,0 -12.8,1.69 -12.8,16.53 0,14.91 9.72,16.6 12.75,16.6 5.44,0 9.88,-4.53 10.86,-11.82 0.11,-0.68 0.11,-0.84 0.8,-0.84 0.8,0 0.8,0.16 0.8,1.2 v 11.8 c 0,0.86 0,1.2 -0.55,1.2 -0.19,0 -0.39,0 -0.8,-0.59 l -2.48,-3.69 c -1.84,1.8 -4.39,4.28 -9.17,4.28 -9.32,0 -17.33,-7.92 -17.33,-18.09 z"
                   inkscape:connector-curvature="0"
                   style="fill:#2aff80;fill-opacity:1;stroke-width:0" /><path
                   id="path6291"
                   d="m 667.98,416.86 -0.01,0.59 -0.05,0.59 -0.07,0.58 -0.1,0.57 -0.12,0.56 -0.15,0.55 -0.17,0.54 -0.2,0.53 -0.23,0.51 -0.24,0.5 -0.27,0.49 -0.29,0.47 -0.3,0.46 -0.33,0.44 -0.35,0.43 -0.37,0.4 -0.38,0.39 -0.4,0.37 -0.42,0.35 -0.43,0.32 -0.45,0.31 -0.46,0.28 -0.47,0.26 -0.49,0.24 -0.5,0.21 -0.51,0.18 -0.52,0.16 -0.53,0.13 -0.54,0.11 -0.55,0.07 -0.55,0.05 -0.56,0.01 -0.05,-1.09 c 2.18,0 4.33,-1.1 5.62,-3.24 1.3,-2.14 1.3,-5.03 1.3,-6.92 0,-1.8 0,-4.48 -1.09,-6.67 -1.1,-2.25 -3.28,-3.69 -5.78,-3.69 v 0 c -2.15,0 -4.33,1.05 -5.68,3.33 -1.25,2.2 -1.25,5.23 -1.25,7.03 0,1.94 0,4.63 1.19,6.83 1.36,2.28 3.69,3.33 5.69,3.33 l 0.05,1.09 c -6.22,0 -11.07,-5.42 -11.07,-11.65 0,-6.43 5.19,-11.21 11.02,-11.21 6.03,0 11.06,4.88 11.06,11.21 z"
                   inkscape:connector-curvature="0"
                   style="fill:#2aff80;fill-opacity:1;stroke-width:0" /><path
                   id="path6293"
                   d="m 686.06,409.98 0.02,-0.19 0.03,-0.18 0.04,-0.19 0.04,-0.18 0.05,-0.19 0.06,-0.18 0.06,-0.18 0.07,-0.18 0.07,-0.18 0.08,-0.17 0.09,-0.18 0.09,-0.16 0.11,-0.16 0.1,-0.16 0.12,-0.16 0.12,-0.14 0.12,-0.14 0.13,-0.14 0.14,-0.13 0.15,-0.12 0.15,-0.12 0.15,-0.1 0.17,-0.1 0.16,-0.09 0.18,-0.08 0.18,-0.07 0.19,-0.06 0.19,-0.05 0.2,-0.04 0.21,-0.03 0.21,-0.02 0.21,-0.01 c 1.03,0 4.08,0.71 4.08,4.74 v 2.78 h -1.25 v -2.78 c 0,-2.89 -1.23,-3.19 -1.8,-3.19 -1.64,0 -1.84,2.23 -1.84,2.48 v 9.97 c 0,2.1 0,4.03 -1.78,5.88 -1.95,1.93 -4.44,2.73 -6.83,2.73 -4.09,0 -7.53,-2.33 -7.53,-5.62 0,-1.49 1,-2.35 2.3,-2.35 1.39,0 2.29,1 2.29,2.3 0,0.59 -0.25,2.23 -2.54,2.3 1.34,1.73 3.78,2.28 5.37,2.28 2.46,0 5.28,-1.94 5.28,-6.38 v -1.84 -1.05 -4.98 c 0,-4.74 -3.58,-6.42 -5.82,-6.42 -2.44,0 -4.49,1.75 -4.49,4.23 0,2.73 2.09,6.88 10.31,7.17 v 0 1.05 c -2.53,-0.14 -6.01,-0.3 -9.15,-1.8 -3.74,-1.69 -4.99,-4.28 -4.99,-6.47 0,-4.03 4.83,-5.28 7.97,-5.28 3.3,0 5.58,1.99 6.53,4.33 z"
                   inkscape:connector-curvature="0"
                   style="fill:#2aff80;fill-opacity:1;stroke-width:0" /><path
                   id="path6295"
                   d="m 703.05,426.12 h 7.13 v 1.55 h -7.13 v 9.17 h -1.25 c -0.05,-4.08 -1.55,-9.42 -6.42,-9.61 v -1.11 h 4.23 v -13.75 c 0,-6.12 4.63,-6.72 6.42,-6.72 3.54,0 4.94,3.53 4.94,6.72 v 2.84 h -1.25 v -2.73 c 0,-3.69 -1.5,-5.58 -3.34,-5.58 -3.33,0 -3.33,4.53 -3.33,5.38 z"
                   inkscape:connector-curvature="0"
                   style="fill:#2aff80;fill-opacity:1;stroke-width:0" /><path
                   id="path6297"
                   d="m 722.55,428.21 -6.96,-0.54 v -1.55 c 3.23,0 3.68,-0.3 3.68,-2.73 v -13.41 c 0,-2.23 -0.54,-2.23 -3.89,-2.23 v -1.55 c 1.6,0.05 4.28,0.16 5.49,0.16 1.75,0 3.48,-0.11 5.18,-0.16 v 1.55 c -3.29,0 -3.5,0.25 -3.5,2.18 z"
                   inkscape:connector-curvature="0"
                   style="fill:#2aff80;fill-opacity:1;stroke-width:0" /><path
                   id="path6299"
                   d="m 722.76,436.89 -0.01,0.14 -0.01,0.15 -0.01,0.14 -0.03,0.14 -0.03,0.13 -0.04,0.13 -0.04,0.13 -0.05,0.12 -0.05,0.12 -0.06,0.12 -0.07,0.11 -0.07,0.1 -0.08,0.1 -0.08,0.1 -0.08,0.1 -0.09,0.08 -0.09,0.09 -0.1,0.08 -0.1,0.07 -0.11,0.07 -0.1,0.07 -0.11,0.06 -0.12,0.05 -0.11,0.05 -0.12,0.04 -0.12,0.04 -0.13,0.03 -0.12,0.03 -0.13,0.02 -0.12,0.01 -0.13,0.01 -0.13,0.01 c -1.55,0 -2.64,-1.35 -2.64,-2.64 0,-1.35 1.09,-2.64 2.64,-2.64 1.39,0 2.64,1.04 2.64,2.64 z"
                   inkscape:connector-curvature="0"
                   style="fill:#2aff80;fill-opacity:1;stroke-width:0" /><path
                   id="path6301"
                   d="m 733.02,423.34 v -13.36 c 0,-2.23 -0.54,-2.23 -3.89,-2.23 v -1.55 c 1.75,0.05 4.28,0.16 5.63,0.16 1.29,0 3.89,-0.11 5.58,-0.16 v 1.55 c -3.33,0 -3.88,0 -3.88,2.23 v 9.17 c 0,5.19 3.53,7.97 6.72,7.97 3.14,0 3.69,-2.69 3.69,-5.53 v -11.61 c 0,-2.23 -0.55,-2.23 -3.89,-2.23 v -1.55 c 1.75,0.05 4.29,0.16 5.64,0.16 1.29,0 3.87,-0.11 5.58,-0.16 v 1.55 c -2.6,0 -3.85,0 -3.9,1.5 v 9.51 c 0,4.28 0,5.83 -1.54,7.61 -0.69,0.86 -2.35,1.84 -5.22,1.84 -3.64,0 -5.99,-2.14 -7.38,-5.21 v 5.21 l -7.03,-0.54 v -1.55 c 3.49,0 3.89,-0.34 3.89,-2.78 z"
                   inkscape:connector-curvature="0"
                   style="fill:#2aff80;fill-opacity:1;stroke-width:0" /><path
                   id="path6303"
                   d="m 760.54,412.82 v 0.03 0.02 0.03 0.04 0.04 0.05 l 0.01,0.05 v 0.06 l 0.01,0.05 v 0.07 l 0.01,0.06 0.01,0.07 0.02,0.07 0.01,0.08 0.02,0.08 0.01,0.08 0.03,0.08 0.02,0.08 0.03,0.09 0.03,0.09 0.03,0.09 0.03,0.09 0.04,0.09 0.05,0.1 0.04,0.09 0.05,0.1 0.06,0.09 0.05,0.1 0.07,0.09 0.06,0.1 0.08,0.09 0.07,0.1 c 1.96,-1.39 3.99,-1.55 4.94,-1.55 v 1.14 c -4.34,0 -4.34,4.99 -4.34,6.14 0,1.35 0.06,2.94 0.79,4.17 0.41,0.61 1.55,2 3.55,2 4.33,0 4.33,-4.98 4.33,-6.12 0,-1.34 -0.05,-2.94 -0.8,-4.19 -0.39,-0.59 -1.55,-2 -3.53,-2 v 0 -1.14 c 4.63,0 8.06,3.44 8.06,7.28 0,1.85 -0.79,3.69 -2.03,4.83 1.78,1.69 3.58,1.94 4.49,1.94 0.09,0 0.34,0 0.5,-0.05 -0.57,-0.2 -0.8,-0.75 -0.8,-1.34 0,-0.85 0.64,-1.44 1.44,-1.44 0.5,0 1.43,0.34 1.43,1.48 0,0.85 -0.59,2.44 -2.53,2.44 -1,0 -3.18,-0.3 -5.28,-2.33 -2.09,1.64 -4.19,1.78 -5.28,1.78 -4.64,0 -8.08,-3.43 -8.08,-7.26 0,-2.19 1.1,-4.09 2.35,-5.14 -0.64,-0.74 -1.55,-2.39 -1.55,-4.13 0,-1.54 0.66,-3.43 2.2,-4.43 -3,-0.85 -4.59,-2.99 -4.59,-4.99 0,-3.58 4.94,-6.33 11.01,-6.33 l 0.05,1.14 c -5.03,0 -8.47,2.55 -8.47,5.19 0,2.3 1.89,4.14 4.1,4.28 h 2.93 c 4.28,0 9.86,0 9.86,-4.28 0,-2.69 -3.53,-5.19 -8.42,-5.19 v 0 l -0.05,-1.14 c 5.88,0 11.07,2.55 11.07,6.43 0,1.75 -0.71,4.29 -3.24,5.68 -2.64,1.39 -5.53,1.39 -8.58,1.39 -1.25,0 -3.39,0 -3.73,0.05 -1.59,0.2 -2.64,1.75 -2.64,3.34 z"
                   inkscape:connector-curvature="0"
                   style="fill:#2aff80;fill-opacity:1;stroke-width:0" /></g>            </g>
            <path
               style="fill:none;stroke:#2aff80;stroke-width:7.60172653;stroke-linecap:butt;stroke-linejoin:miter;stroke-miterlimit:4;stroke-dasharray:none;stroke-opacity:1;marker-end:url(#marker4978)"
               d="m -2159.3238,-1620.344 c 280.2528,18.0181 -158.7783,730.96433 -261.2733,915.66609"
               id="path5186"
               inkscape:connector-curvature="0"
               sodipodi:nodetypes="cc" />
          </g>
        </g>
      </g>
    </g>
  </g>
</svg>
